/* XPM */
static char *db2a9fcf7f1d4149a469f00673a3eb74c30L0BETIkqaMxgL[] = {
/* columns rows colors chars-per-pixel */
"50 55 216 2 ",
"   c #010101",
".  c #0C0700",
"X  c #0E0C02",
"o  c #0C0C0D",
"O  c #050D0A",
"+  c #120C00",
"@  c #190F01",
"#  c #1B1202",
"$  c #1D1800",
"%  c #181C0E",
"&  c #0C1C17",
"*  c #111112",
"=  c #1D1D1E",
"-  c #161E12",
";  c #07110D",
":  c #251701",
">  c #331C01",
",  c #3A1F01",
"<  c #10231E",
"1  c #2E2601",
"2  c #372503",
"3  c #3B2A04",
"4  c #2F2D13",
"5  c #0E1221",
"6  c #121C29",
"7  c #132724",
"8  c #132C23",
"9  c #1B232C",
"0  c #163329",
"q  c #1A3A32",
"w  c #262A2A",
"e  c #2D2D26",
"r  c #253529",
"t  c #293B36",
"y  c #2A3E3B",
"u  c #253A36",
"i  c #2F2E2D",
"p  c #462B03",
"a  c #463A00",
"s  c #583403",
"d  c #4F360E",
"f  c #613702",
"g  c #743E02",
"h  c #443B25",
"j  c #394124",
"k  c #23463B",
"l  c #374637",
"z  c #584305",
"x  c #6D4807",
"c  c #644404",
"v  c #7C4704",
"b  c #695600",
"n  c #6B5B0A",
"m  c #74560E",
"M  c #776100",
"N  c #7F6302",
"B  c #74681E",
"V  c #4B4B27",
"C  c #555627",
"Z  c #52562E",
"A  c #665B23",
"S  c #735626",
"D  c #766934",
"F  c #6A743A",
"G  c #726E31",
"H  c #1F2749",
"J  c #1F3B41",
"K  c #2C3850",
"L  c #303D72",
"P  c #254A44",
"I  c #2B4C42",
"U  c #284B47",
"Y  c #255A46",
"T  c #2C534D",
"R  c #2F5D4C",
"E  c #295744",
"W  c #385C4A",
"Q  c #34445C",
"!  c #2E5B54",
"~  c #2D5756",
"^  c #305F59",
"/  c #30565F",
"(  c #30484D",
")  c #2B604D",
"_  c #386347",
"`  c #2D6853",
"'  c #3C6454",
"]  c #31635A",
"[  c #326B5D",
"{  c #336456",
"}  c #32715E",
"|  c #387C5F",
" . c #314C6E",
".. c #30456D",
"X. c #305364",
"o. c #31546C",
"O. c #325B69",
"+. c #314371",
"@. c #3B4D7B",
"#. c #35516F",
"$. c #336462",
"%. c #326469",
"&. c #396A6A",
"*. c #337560",
"=. c #347E63",
"-. c #387B67",
";. c #3E6976",
":. c #3C7A71",
">. c #54575B",
",. c #496E47",
"<. c #577A4C",
"1. c #5D7B4A",
"2. c #497B56",
"3. c #50704C",
"4. c #6B7241",
"5. c #7E705F",
"6. c #436C75",
"7. c #437376",
"8. c #686B60",
"9. c #814402",
"0. c #8F4C02",
"q. c #895B08",
"w. c #8A5706",
"e. c #995604",
"r. c #A65802",
"t. c #876E00",
"y. c #8B6B04",
"u. c #8D7303",
"i. c #957704",
"p. c #886A19",
"a. c #967318",
"s. c #976409",
"d. c #AB6506",
"f. c #BD6907",
"g. c #B97709",
"h. c #88772A",
"j. c #937125",
"k. c #AB732E",
"l. c #C76A03",
"z. c #C96D04",
"x. c #C67708",
"c. c #D37B07",
"v. c #857B61",
"b. c #7A8739",
"n. c #788539",
"m. c #3F815E",
"M. c #3B8060",
"N. c #4B8258",
"B. c #688048",
"V. c #62864D",
"C. c #788A42",
"Z. c #9E8F1C",
"A. c #A48600",
"S. c #BD910B",
"D. c #888D36",
"F. c #91842D",
"G. c #AC8623",
"H. c #A8902C",
"J. c #B99424",
"K. c #B68733",
"L. c #BAA022",
"P. c #DE8C0B",
"I. c #D68609",
"U. c #C39F01",
"Y. c #C09603",
"T. c #DB910D",
"R. c #D3910F",
"E. c #C19510",
"W. c #E7990E",
"Q. c #C5A100",
"!. c #CDAD0C",
"~. c #D1AA00",
"^. c #DAA20B",
"/. c #DBB200",
"(. c #C3AE1A",
"). c #C2A510",
"_. c #CFB614",
"`. c #E2A706",
"'. c #E2B901",
"]. c #E5B803",
"[. c #C5B837",
"{. c #CDBB23",
"}. c #EEC200",
"|. c #F8CA00",
" X c #FFD000",
".X c #FFD40B",
"XX c #FED713",
"oX c #FEDC22",
"OX c #FDE439",
"+X c #939348",
"@X c #C0BB53",
"#X c #C2C056",
"$X c #FBF15F",
"%X c #3E5280",
"&X c #435A85",
"*X c #4A6684",
"=X c #4B7985",
"-X c #4F6C91",
";X c #577491",
":X c #597C9B",
">X c #516D8F",
",X c #4F808A",
"<X c #548591",
"1X c #5A8A9A",
"2X c #5C82A1",
"3X c #658BA6",
"4X c #6A96AB",
"5X c #6B9CB5",
"6X c #739BB2",
"7X c #73A2BA",
"8X c #77AAC3",
"9X c #7EB1C7",
"0X c #81ADBF",
"qX c #86B5C6",
"wX c #93C5D3",
"eX c #A5D6DD",
/* pixels */
"^ ^ ^ ^ ^ ^ ^ ^ ^ ^ [ =.=.=.[ ^ ^ ^ ^ ^ ^ ^ ^ ^ ^ ^ ^ ^ [ =.=.=.=.=.=.=.=.=.=.[ ^ ^ ^ ^ ^ ^ } =.=.=.",
"^ ^ ^ ^ ^ ^ ^ ^ ^ ^ [ =.=.=.[ ^ ^ ^ ^ ^ ^ ^ ^ ^ ^ ^ ^ ^ [ =.=.=.=.=.=.=.M.M.=.[ ^ ^ ^ ^ ^ ^ } =.=.=.",
"^ ^ ^ ^ ^ ^ ^ ^ ^ ^ [ =.=.=.[ ^ ^ ^ ^ ^ ^ ^ ^ ^ ^ ^ ^ ^ [ =.=.=.=.=.=.=.M.=.=.[ ^ ^ ^ ^ ^ ^ } =.=.=.",
"^ ^ ^ ] } } } } } } *.=.=.=.*.} } } } } } ] ^ ^ ^ ^ ^ ^ ] [ [ } *.=.=.=.M.=.=.*.} } [ ] ^ ^ ] [ [ [ ",
"^ ^ ^ [ =.=.=.=.=.=.=.=.=.=.=.=.=.=.=.=.=.[ ^ ^ ^ ^ ^ ^ ] ^ ^ ] *.=.=.=.=.=.=.=.=.=.*.] ^ ^ ^ ^ ^ ^ ",
"^ ^ ^ [ =.=.=.=.=.=.=.=.=.=.=.=.=.=.=.=.=.[ ^ ^ ^ ^ ^ ^ ^ ^ ^ ] *.=.=.=.=.=.=.=.=.=.*.] ^ ^ ^ ^ ^ ^ ",
"[ [ [ } =.=.=.*.*.*.*.*.*.*.*.*.*.*.*.*.*.[ ^ ^ ] ] [ [ [ [ [ [ *.=.=.=.*.*.*.*.*.*.[ ] ^ ^ ^ ^ ^ ^ ",
"*.*.*.=.=.=.=.[ ] ] ] ] ] ] ] ] ] ] ] ] ] ] ^ ^ ] *.*.*.*.*.=.=.=.=.=.*.] ] ] ] ] ] ] ] ^ ^ ^ ^ ^ ^ ",
"=.=.=.=.=.=.*.[ ^ ^ ^ ^ ^ ^ ^ ^ ^ ^ ^ ^ ] ] ^ ^ ] *.M.M.M.M.M.=.=.=.=.} ] ^ ^ ^ ^ ^ ^ ^ ^ ^ ^ ^ ^ ^ ",
"M.=.=.=.=.=.*.[ ^ ^ ^ ^ ^ ^ ^ ^ ^ ^ ^ ^ ] ] ^ ^ ] *.M.=.M.M.=.=.=.=.=.} ] ^ ^ ^ ^ ^ ^ ^ ^ ^ ^ ^ ^ ^ ",
"M.M.=.*.[ [ [ ] ^ ^ ^ ^ ^ ^ ^ ^ ] $.&.&.&.&.&.$.] *.=.=.=.*.*.*.$.$.[ ] ] ^ ^ ^ ^ ^ ^ ^ ^ ^ ^ ^ ^ ^ ",
"M.=.=.} ^ ^ ^ ^ ^ ^ ^ ^ ^ ^ ^ ^ $.7.,X<X<X<X=X&.] *.=.=.*.%.O.O.X.X./ ^ ^ ^ ^ ^ ^ ^ ^ ^ ^ ^ ^ ^ ^ ^ ",
"=.=.=.} ^ ^ ^ ^ ^ ^ ^ ^ ^ ^ ^ ^ &.,X4X5X5X5X1X7.] *.=.=.%.o.+.+.+...X.^ ^ ^ ^ ^ ^ ^ ^ ^ ^ ^ ^ ^ ^ ^ ",
"=.=.=.*.[ [ [ [ [ [ [ [ [ [ $.$.7.<X5X8X8X9X4X<X7.:.-.&.O. .L L L +.o.O.$.] [ [ [ [ ] ] ^ ^ ^ ^ ^ ^ ",
"=.=.=.=.=.=.=.=.=.=.=.=.=.-.&.6.=X1X5X8XqXwXqX4X1X=X;.o. .+.L L L +. .o.%.&.=.=.=.=.*.] ^ ^ ^ ^ ^ ^ ",
"=.=.=.=.=.=.=.=.=.=.=.=.=.-.6.>X:X3X5X9XwXeXwXqX7X2X&X+.L L L L L L L +. .%.-.=.=.=.*.] ^ ^ ^ ^ ^ ^ ",
"=.=.=.=.=.=.=.=.=.=.=.=.=.-.;.*X-X:X4X7X0XqXqX7X4X:X&XL L L L L L L L L  .%.-.=.=.=.*.] ] ! T T ! ! ",
"=.=.=.=.=.=.=.=.=.=.=.=.=.-.&.@.&X-X:X3X4X6X4X3X2X-X%XL L L L L L L L L  .%.-.=.=.=.=.*.} ) I k R [ ",
"=.=.=.=.=.=.M.=.=.=.=.=.=.*.%. .@.&X>X;X;X;X;X;X;X&X@.L L L L L L L L L  .%.=.=.=.=.=.=.| R t r I [ ",
"=.=.=.=.=.=.=.M.=.=.=.=.=.*.^ Q K Q Q >.8.v.v.v.5.>.K H H H H K X.o.o.o.X.^ R R R R R R R E I I ) } ",
"=.=.=.=.=.=.=.*.} } } } } [ T J w 9 9 h D K.K.k.k.S e 5 5 5 6 J ~ $.$.$.~ U y t t t t t y I R ` } *.",
"=.=.=.=.=.=.*.[ ^ ^ ^ { ' W I i = *   2 q.T.P.c.l.9.,   . X - k W ' ' ' W l i e e w w w w y ! =.=.=.",
"=.=.=.=.=.=.*.[ ^ ^ { 3.4.G Z i = *   2 q.T.P.c.l.9., . 4 V G n.D.D.D.D.D.h.p.A V y y y y U { =.=.=.",
"*.*.*.*.*.*.*.] ^ ^ ' 4.F.G.S h = *   2 q.T.P.c.l.9., X V +X#X[.{._._._._.!.!.Z.F T T T T ~ [ =.=.=.",
"] [ ] ] ] ] ] ] ! ~ W G J.R.p.h = *   2 q.T.P.c.l.9., X A @X$XOXXX X X X X X X(.b.^ ^ ^ ^ ^ } =.=.=.",
"] ] ^ ^ ^ ^ ^ ^ U u r B E.^.a.h = *   2 q.T.P.c.l.9., X A [.OXoX.X X X X X X X(.b.^ ^ ^ ^ ^ } M.=.=.",
"] ] ] ^ ^ ^ ^ ^ k 7 % n U.].a.V = *   2 q.T.P.c.l.9., X n ).XX.X X X X X X X X(.b.^ ^ ^ ^ ^ } M.M.=.",
"] ] ] ] ^ ! T T q & + b Q.].i.h = o   2 w.I.I.c.l.9., X b U.|.]./.~.~.~./.}. X(.b.^ ^ ^ ^ ^ } M.M.=.",
"^ ^ ^ ^ ^ T k 0 < ; + b Q.'.u.4 o O   > v x.c.z.l.9., X b U.}.S.u.M M M i.Q.|.(.b.^ ^ ^ ] ] } M.=.=.",
"^ ^ ^ ^ ^ P 7 O O   + b Q.'.t.1       > v f.z.l.l.9., X b U.'.i.a $ $ $ z A.}.(.b.^ ^ ^ ^ ^ } M.M.=.",
"] [ ] ] ] P 7       + b Y.`.i.s : @   : s 0.r.f.l.9.2 X b U.'.t.1       3 u.].(.b.] ] ] ] ] } *.*.*.",
"*.*.*.*.*.E 8       + c S.`.g.w.f , . + > p g e.l.9.2 X b U.'.t.1       3 y.`.L.C.=.*.*.*.*.[ ] ] ] ",
"M.=.=.=.=.Y 8       X c g.W.I.l.e.s +   . . p 9.l.9., X b Q.'.t.1       2 q.T.J.C.=.=.=.=.=.[ ^ ^ ^ ",
"M.=.} ` Y q &       . p m d.g.x.d.f @       , 9.l.9., . a t.A.N z p p p z p.G.D.V.=.=.=.=.=.[ ^ ^ ^ ",
"M.=.` k 0 & ;       . : 3 c e.x.g.c #       , 9.l.9., . : a c m q.s.s.s.p.h.C.V.N.=.*.[ [ [ ] ^ ^ ^ ",
"M.M.) 0                   # x g.g.x #       , 9.l.9.,       # x g.W.W.W.J.C.m.=.=.=.*.] ^ ^ ] ^ ^ ^ ",
"=.=.` k 0 8 8 8 & O       # c g.x.w.s 3 4 8 j A j.A j 8 8 8 r C h.H.H.H.D.V.M.=.=.=.*.] ^ ^ ^ ^ ^ ^ ",
"*.*.[ ` Y Y Y E 0 &       @ f d.z.d.e.m Z E _ ,.1.,._ Y Y Y R ,.1.B.B.B.1.2.| =.=.=.*.[ [ [ [ [ [ [ ",
"] ] ] [ =.=.*.[ k <       # s e.f.f.f.a.F | =.=.=.=.=.=.=.=.=.*.[ ] ] ] ] ] ] *.=.=.=.=.=.=.=.=.=.=.",
"] ] ] [ =.=.*.[ U q 7 7 7 r V D h.h.h.G <.=.=.=.=.=.=.=.=.=.=.*.[ ] ] ] ^ ^ ] } =.=.=.=.=.=.=.=.=.=.",
"] ] ] [ =.=.*.[ ! T U U U I _ 3.<.<.<.2.2.=.=.=.=.=.=.=.=.=.=.*.[ ^ ^ ^ ^ ^ ] } =.=.=.=.=.=.=.=.=.=.",
"} } } *.=.=.=.*.} } } } } *.*.=.=.=.=.=.=.=.=.=.*.[ [ [ [ [ [ [ ] ^ ^ ^ ^ ^ ] ] [ [ } =.=.=.=.=.=.=.",
"=.=.=.=.=.=.M.M.=.=.=.=.=.=.=.=.=.=.=.=.=.=.=.=.*.] ^ ^ ^ ^ ^ ^ ^ ^ ^ ^ ^ ^ ^ ^ ^ ^ [ *.=.=.=.=.=.=.",
"=.=.=.=.=.=.M.M.=.=.=.=.=.=.=.=.=.=.=.=.=.=.=.=.*.] ^ ^ ^ ^ ^ ^ ^ ^ ^ ^ ^ ^ ^ ^ ^ ^ [ *.=.=.=.M.=.=.",
"=.M.M.=.=.=.=.*.} } } } } } *.M.=.=.=.=.=.*.} } [ ] ^ ^ ^ ^ ^ ^ ^ ^ ^ ^ ^ ^ ] ] [ [ } =.=.=.*.} } } ",
"M.M.=.=.=.=.*.[ ] ] ] ] ] ] } M.=.=.=.=.=.[ ] ] ] ^ ^ ^ ^ ^ ^ ^ ^ ^ ^ ^ ^ ^ ] } =.=.=.=.=.=.[ ] ] ] ",
"=.=.=.=.=.=.*.[ ^ ^ ^ ] ^ ] } =.=.=.=.=.=.[ ^ ^ ^ ^ ] ^ ^ ^ ^ ^ ^ ^ ^ ^ ^ ^ ] } M.=.=.=.=.=.[ ^ ^ ^ ",
"=.=.=.=.*.*.*.] ^ ^ ^ ^ ^ ] } =.=.=.=.=.=.[ ^ ^ ^ ^ ] ] ^ ^ ^ ^ ^ ^ ^ ] ] ] ] *.=.=.=.=.*.*.[ ^ ^ ^ ",
"=.=.=.*.[ [ ] ] ^ ^ ^ ^ ^ ] } =.=.=.=.=.=.[ ^ ^ ^ ^ ^ ^ ^ ^ ^ ^ ^ ^ ^ [ *.*.*.=.=.=.*.[ [ [ ] ^ ^ ^ ",
"=.=.=.} ^ ^ ^ ^ ^ ^ ^ ^ ^ ] } =.=.=.=.=.=.[ ^ ] ^ ^ ^ ^ ^ ^ ^ ^ ^ ^ ^ [ =.=.=.=.=.=.*.] ] ^ ^ ^ ^ ^ ",
"=.=.=.} ^ ^ ^ ^ ^ ^ ^ ^ ^ ] } =.=.=.=.=.=.[ ^ ^ ^ ^ ^ ^ ^ ^ ^ ^ ^ ^ ^ [ =.=.=.=.=.=.*.] ^ ^ ^ ^ ^ ^ ",
"} } } [ ^ ^ ^ ^ ^ ^ ] [ [ [ *.=.M.*.} } } ] ^ ^ ^ ^ ^ ^ ^ ^ ^ ] [ [ [ *.=.=.=.=.=.=.*.} [ [ [ [ [ [ ",
"^ ^ ^ ^ ^ ^ ^ ^ ^ ^ [ =.=.=.=.=.=.*.] ^ ^ ^ ^ ^ ^ ^ ^ ^ ^ ^ ^ ] *.=.=.=.=.=.=.=.=.=.=.=.=.=.=.=.=.=.",
"^ ^ ^ ^ ^ ^ ^ ^ ^ ^ [ =.=.=.=.=.=.*.] ^ ^ ^ ^ ^ ^ ^ ^ ^ ^ ^ ^ ] *.=.=.=.=.=.=.=.=.=.=.=.=.=.=.=.=.=.",
"^ ^ ^ ^ ^ ^ ^ ^ ^ ^ [ =.=.=.=.=.=.*.] ^ ^ ^ ^ ^ ^ ^ ^ ^ ^ ^ ^ ] *.=.=.=.=.=.=.=.=.=.=.=.=.=.=.=.=.=."
};
