/* XPM */
static char *f62660ddaefc4f3cdacf0d867c2e1f9frfjKd23JgTtxC8x9[] = {
/* columns rows colors chars-per-pixel */
"50 55 192 2 ",
"   c #010101",
".  c #0C0700",
"X  c #030806",
"o  c #09090A",
"O  c #0E0A01",
"+  c #100D00",
"@  c #101008",
"#  c #0C0F1C",
"$  c #091411",
"%  c #0B1915",
"&  c #0D1E18",
"*  c #191C19",
"=  c #251401",
"-  c #2A1D05",
";  c #331C01",
":  c #0D2019",
">  c #302700",
",  c #392503",
"<  c #3B2A03",
"1  c #3F3708",
"2  c #3E3101",
"3  c #2F2F17",
"4  c #322A1A",
"5  c #37381A",
"6  c #152A27",
"7  c #17282A",
"8  c #1C3933",
"9  c #17352B",
"0  c #34392E",
"q  c #283533",
"w  c #293B37",
"e  c #232734",
"r  c #403400",
"t  c #473B07",
"y  c #5D3703",
"u  c #572E01",
"i  c #703C02",
"p  c #413A27",
"a  c #1D4838",
"s  c #2B473D",
"d  c #5B4305",
"f  c #474312",
"g  c #584A1C",
"h  c #634204",
"j  c #6F5B00",
"k  c #705B00",
"l  c #7D5C1A",
"z  c #7B5416",
"x  c #4F4822",
"c  c #4A4025",
"v  c #505C3E",
"b  c #575F35",
"n  c #4D592D",
"m  c #5D7D3F",
"M  c #54663C",
"N  c #627239",
"B  c #242E55",
"V  c #383F5C",
"C  c #283652",
"Z  c #323F63",
"A  c #303D72",
"S  c #2C4C41",
"D  c #274D48",
"F  c #244843",
"G  c #304E43",
"H  c #2A544C",
"J  c #275E4A",
"K  c #2C5C4C",
"L  c #2E4B5A",
"P  c #2C5553",
"I  c #2E5C52",
"U  c #2F5958",
"Y  c #30565F",
"T  c #305F59",
"R  c #34674A",
"E  c #2C6551",
"W  c #2F6758",
"Q  c #316C56",
"!  c #31635A",
"~  c #326B5D",
"^  c #396655",
"/  c #32715E",
"(  c #33795F",
")  c #3D7C5C",
"_  c #2D4267",
"`  c #2F4960",
"'  c #304C67",
"]  c #30446D",
"[  c #314E6E",
"{  c #3C4F6A",
"}  c #305265",
"|  c #335A69",
" . c #3B5679",
".. c #336E65",
"X. c #396B6A",
"o. c #337560",
"O. c #347E63",
"+. c #3A7C6C",
"@. c #39736C",
"#. c #3F7D74",
"$. c #495B43",
"%. c #556847",
"&. c #4C734B",
"*. c #557A4C",
"=. c #517B51",
"-. c #4D6A4C",
";. c #637C46",
":. c #4F616E",
">. c #5F6168",
",. c #47797D",
"<. c #74756F",
"1. c #6C7470",
"2. c #787B70",
"3. c #954F02",
"4. c #955002",
"5. c #9B5804",
"6. c #825608",
"7. c #A35803",
"8. c #8F7500",
"9. c #9E7F01",
"0. c #9A751B",
"q. c #926408",
"w. c #A86A08",
"e. c #AC6604",
"r. c #AE730A",
"t. c #B57309",
"y. c #B27E08",
"u. c #A16A1A",
"i. c #BB6303",
"p. c #835524",
"a. c #8F7620",
"s. c #86732D",
"d. c #977427",
"f. c #B17629",
"g. c #C66D04",
"h. c #CE7506",
"j. c #C77507",
"k. c #74813D",
"l. c #3F815E",
"z. c #3F8574",
"x. c #388169",
"c. c #568453",
"v. c #63884A",
"b. c #67934A",
"n. c #43887A",
"m. c #BF9C00",
"M. c #BD9506",
"N. c #BC8711",
"B. c #A2901A",
"V. c #BD931C",
"C. c #BEA417",
"Z. c #97812F",
"A. c #988B32",
"S. c #BC9423",
"D. c #BD882D",
"F. c #C49C06",
"G. c #D98E08",
"H. c #E08E0B",
"J. c #CFA900",
"K. c #C7A509",
"L. c #CCBB19",
"P. c #CBB315",
"I. c #C7AD1B",
"U. c #C7BA29",
"Y. c #EFC300",
"T. c #FFD000",
"R. c #FFD308",
"E. c #FED817",
"W. c #BEB748",
"Q. c #8D8D45",
"!. c #FCE845",
"~. c #3F5482",
"^. c #425883",
"/. c #526F92",
"(. c #547394",
"). c #466C80",
"_. c #558399",
"`. c #568794",
"'. c #569397",
"]. c #4E8C88",
"[. c #60839F",
"{. c #5C81A3",
"}. c #668BA6",
"|. c #639BA9",
" X c #6898B1",
".X c #70A7B4",
"XX c #75A3BA",
"oX c #7CAFC5",
"OX c #75A7C1",
"+X c #8BB7C7",
"@X c #8EC1CC",
"#X c #92C3D2",
/* pixels */
"T T T T T T T T T T ~ O.O.O.~ T T T T T T T T T T T T T ~ O.O.O.O.O.O.O.O.O.O.~ T T T T T T / O.O.O.",
"T T T T T T T T T T ~ O.O.O.~ T T T T T T T T T T T T T ~ O.O.O.O.O.O.O.O.O.O.~ T T T T T T / O.O.O.",
"T T T T T T T T T T ~ O.O.O.~ T T T T T T T T T T T T T ~ O.O.O.O.O.O.O.x.O.O.~ T T T T T T / O.O.O.",
"T T T ! / / / / / / o.O.O.O.o./ / / / / / ! T T T T T T ! ~ ~ / o.O.O.O.x.O.O.o./ / ~ ! T T ! ~ ~ ~ ",
"T T T ~ O.O.O.O.O.O.O.O.O.O.O.O.O.O.O.O.O.~ T T T T T T ! T T ! o.O.O.O.O.O.O.O.O.O.o.! T T T T T T ",
"T T T ~ O.O.O.O.O.O.O.O.O.O.O.O.O.O.O.O.O.~ T T T T T T T T T ! o.O.O.O.O.O.O.O.O.O.o.! T T T T T T ",
"~ ~ ~ / O.O.O.o.o.o.o.o.o.o.o.o.o.o.o.o.o.~ T T ! ! ~ ~ ~ ~ ~ ~ o.O.O.O.o.o.o.o.o.o.~ ! T T T T T T ",
"o.o.o.O.O.O.O.~ ! ! ! ! ! ! ! ! ! ! ! ! ! ! T T ! o.o.o.o.o.O.O.O.O.O.o.! ! ! ! ! ! ! ! T T T T T T ",
"O.O.O.O.O.O.o.~ T T T T T T ! T T T T T T T T T ! o.x.x.x.x.x.O.O.O.O./ ! T T T T T T T T T T T T T ",
"O.O.O.O.O.O.o.~ T T T T T T T T T T T T T ! T T ! o.x.x.x.x.O.O.O.O.O./ ! T T T T T T T T T T T T T ",
"x.x.O.o.~ ~ ~ ! T T T T T T T T T T T T T T T T ! o.O.O.O.O.O.O./ ~ ~ ! ! T T T T T T T T T T T T T ",
"x.O.O./ T T T T T T T T T T T T Y Y Y Y Y T T T ! o.x.z.n.n.n.z.@.! T T T T T T T T T T T T T T T T ",
"O.O.O./ T T T T T T T T T T Y Y ' ] ] ] ' Y Y T ! o.z.'.|.|.|.'.`.@.T T T T T T T T T T T T T T T T ",
"O.O.O.( ~ ~ ~ ~ ~ ~ ~ ~ ~ ~ Y Y ' ] ] ] ' Y Y T ! o.z.'.|.|.|.'.'.@.~ ~ ~ ~ ~ ~ ~ ~ ! ! T T T T T T ",
"O.O.O.O.O.O.O.O.O.O.O.O.O...} } ] A A A ] } } | @.#.'..XoXoXOX|.|.].+.O.O.O.O.O.O.O.o.! T T T T T T ",
"O.O.O.O.O.O.O.O.O.O.O.O.o.| ] ] A A A A A ] ]  ._._..X@X#X#XoX X X_.,.+.+.O.O.O.O.O.o.! T T T T T T ",
"O.O.O.O.O.O.O.O.O.O.O.O.o.| ] ] A A A A A ] ]  ._._..X@X#X#XoX X X`.,.+.+.O.O.O.O.O.o.! ! ! ! ! ! ! ",
"( ( Q Q Q ( O.O.O.O.O.O...[ A A A A A A A A A ~.{.{.XX+X+X+XXX}.}.(.,.+.+.O.O.O.O.O.O.o.o.o.o.o.o.o.",
"Q Q S S S Q O.O.O.O.O.O...[ A A A A A A A A A  ././.[.}.}.}.[.(.(.^. .@.@.O.O.O.O.O.O.O.O.O.O.O.O.O.",
"Q Q S s s K Q Q Q Q Q Q ! } [ [ [ _ _ C B B B V >.>.<.2.1.1.:.{ { Z ` ....O.O.O.O.O.O.O.O.O.O.O.O.O.",
"Q Q S s s K W E I I I I U } [ [ [ _ _ C B B B V >.>.<.2.1.1.:.{ { Z ` ! ! / / o./ / / / / / o.O.O.O.",
"( ( Q K K s w q q q q q w P ......P P 7 # # # 4 p.p.f.D.d.d.p 7 7 e C P P T T T T T T T T T / O.O.O.",
"x.x.O.Q Q S w q q 0 x x b N v.b.b.m m n 3 @ @ ; 4.4.h.H.r.r., o o * 0 v v %.^ T T T T T T T / O.O.O.",
"o.o.o.Q Q S w q q 0 x x b N v.b.b.m m n 3 @ O ; 4.4.h.H.r.r., o o * 0 v v %.^ T T T T T T T / O.O.O.",
"! ! ! ! ! I H H H M B.B.K.P.L.L.L.U.U.W.Q.3 3 ; 4.4.h.H.r.r., o o * c d.d.Z.%.T T T T T T T / O.O.O.",
"! T T T T T T T T ;.P.P.T.T.T.T.T.E.E.!.W.5 5 ; 4.4.h.H.r.r., o o * g N.N.V.b D D I T T T T / O.O.O.",
"T ! T ! T T T T T ;.P.P.T.T.T.T.T.R.R.E.C.1 1 ; 4.4.h.H.r.r., o o * g F.F.M.f 6 6 D T T T T / O.O.O.",
"T ! T T T T ! ~ ~ v.L.L.T.T.T.T.T.R.R.E.C.1 1 ; 4.4.h.H.r.r., o o * g F.F.M.f 6 6 D T T T T / O.O.O.",
"! ! T T T T ! o.O.b.L.L.Y.J.m.m.m.J.J.Y.m.r r ; 4.4.h.G.w.w., o o * g K.K.m.r $ $ 8 D D I ! / O.O.O.",
"! ! ! T T T ! o.O.b.L.L.J.j r r r k k J.m.r r ; 4.4.g.h.5.5.;     o t F.F.m.r X X $ 6 6 D T / x.O.O.",
"~ ~ ! ! ! ! ~ o.O.b.L.L.J.j r r r k k J.m.r r ; 4.4.g.h.5.5.;     o t F.F.m.r X X $ 6 6 H ! / o.o.o.",
"o.o.o.o.o.o.o.O.O.b.I.I.M.2       r r m.m.r r ; 4.4.i.7.i i = . . = h F.F.M.2       & & J o.~ ! ! ! ",
"x.O.O.O.O.O.O.O.O.v.S.V.y.<       r r m.m.r r ; 4.4.7.u = = . = = i e.G.G.y.<       : : J O.~ T T T ",
"O.O.O.O.O.O.O.O.O.c.A.Z.0.d , , , d d B.8.> > ; 4.4.3.;       ; ; 5.j.t.t.6.-       % % a E W I T T ",
"x.O.O.O.O.O.O.O.O.c.A.A.0.d , , , d d 9.8.> > ; 4.4.3.;       ; ; 5.j.t.t.6.-       $ $ 8 H I I T T ",
"O.O.O.O.O.O.O.O.O.l.c.c.k.0.r.r.r.q.q.d > + + ; 4.4.3.;       , , w.t.h h - O       X X $ 6 D D T T ",
"O.O.O.O.O.O.O.O.O.O.O.O.c.A.S.S.S.a.a.5 : : : 5 l l l 3 * * - y y t.w., ,     X X % & % % 6 D D T T ",
"o.o.o.o.O.O.O.o.o.o.o.o.=.A.S.S.S.a.a.5 : : : 5 l l l 3 * * - y y t.w., ,     X X % & % % 6 H H ~ ~ ",
"! ! ! ~ O.O.o.~ ! ! ! ! ^ -.;.v.v.*.*.R J J J R &.&.&.R v v z 7.7.g.5.; ;     $ % a J J J E ( ( O.O.",
"T T T ~ O.O.O.~ T T T T T ! o.O.O.O.O.O.O.O.O.O.O.O.O.O.=.=.s.u.u.u.z 4 4 % % 9 9 E O.O.O.O.O.O.O.O.",
"! ! ! ~ O.O.o.~ ! ! ! ! ! ! ( O.O.O.O.O.O.O.O.O.O.O.O.O.) ) =.*.%.%.$.G G F F K E ( O.O.O.O.O.O.O.O.",
"( ( ( o.O.O.O.o.( ( ( ( / o.o.O.O.O.O.O.O.O.O.O.o.~ ~ ~ ^ ^ -.%.%.%.$.G G F F H H W / O.O.O.O.O.O.O.",
"O.O.O.O.O.O.x.x.O.O.O.O.O.O.O.O.O.O.O.O.O.O.O.O.o.! T T T T T T T T T T T T T T T T ~ o.O.O.O.O.O.O.",
"O.O.O.O.O.O.x.x.O.O.O.O.O.O.O.O.O.O.O.O.O.O.O.O.o.! T T T T T T T T T T T T T T T T ~ o.O.O.O.x.O.O.",
"O.O.O.O.O.O.O.o./ / / / / / o.O.O.O.O.O.O.o./ / ~ ! T T T T T T T T T T T T ! ! ~ ~ / O.O.O.o./ / / ",
"O.O.O.O.O.O.o.~ ! ! ! ! ! ! / O.O.O.O.O.O.~ ! ! ! T T T T T T T T T T T T T ! / O.O.O.O.O.O.~ ! ! ! ",
"O.O.O.O.O.O.o.~ T T T ! T ! / O.O.O.O.O.O.~ T T T T ! T T T T T T T T T T T ! / x.O.O.O.O.O.~ T T T ",
"O.O.O.O.o.o.o.! T T T T T ! / O.O.O.O.O.O.~ T T T T ! ! T T T T T T T ! ! ! ! o.O.O.O.O.o.o.~ T T T ",
"O.O.O.o.~ ~ ! ! T T T T T ! / O.O.O.O.O.O.~ T T T T T T T T T T T T T ~ o.o.o.O.O.O.o.~ ~ ~ ! T T T ",
"O.O.O./ T T T T T T T T T ! / O.O.O.O.O.O.~ T ! T T T T T T T T T T T ~ O.O.O.O.O.O.o.! ! T T T T T ",
"O.O.O./ T T T T T T T T T ! / O.O.O.O.O.O.~ T T T T T T T T T T T T T ~ O.O.O.O.O.O.o.! T T T T T T ",
"/ / / ~ T T T T T T ! ~ ~ ~ o.O.x.o./ / / ! T T T T T T T T T ! ~ ~ ~ o.O.O.O.O.O.O.o./ ~ ~ ~ ~ ~ ~ ",
"T T T T T T T T T T ~ O.O.O.O.O.O.o.! T T T T T T T T T T T T ! o.O.O.O.O.O.O.O.O.O.O.O.O.O.O.O.O.O.",
"T T T T T T T T T T ~ O.O.O.O.O.O.o.! T T T T T T T T T T T T ! o.O.O.O.O.O.O.O.O.O.O.O.O.O.O.O.O.O.",
"T T T T T T T T T T ~ O.O.O.O.O.O.o.! T T T T T T T T T T T T ! o.O.O.O.O.O.O.O.O.O.O.O.O.O.O.O.O.O."
};
