/* XPM */
static char *result[] = {
/* columns rows colors chars-per-pixel */
"50 55 104 2 ",
"   c #060201",
".  c #070604",
"X  c #0C0603",
"o  c #0E0805",
"O  c #000F0F",
"+  c #0F0E0B",
"@  c #100906",
"#  c #160B06",
"$  c #190F0B",
"%  c #1D0F08",
"&  c #1F130E",
"*  c #1F140E",
"=  c #000D10",
"-  c #001212",
";  c #001619",
":  c #00181D",
">  c #001A1D",
",  c #311C0F",
"<  c #221711",
"1  c #271A15",
"2  c #2B1D16",
"3  c #31221A",
"4  c #36261E",
"5  c #00272C",
"6  c #002F35",
"7  c #003035",
"8  c #00363F",
"9  c #292F29",
"0  c #362720",
"q  c #362820",
"w  c #43332A",
"e  c #443228",
"r  c #4B3A31",
"t  c #4E3C32",
"y  c #004B51",
"u  c #00515A",
"i  c #00525C",
"p  c #305F59",
"a  c #306059",
"s  c #306159",
"d  c #30615A",
"f  c #30625A",
"g  c #30635A",
"h  c #31635A",
"j  c #31645A",
"k  c #31645B",
"l  c #31655B",
"z  c #31665B",
"x  c #31675B",
"c  c #31675C",
"v  c #31685C",
"b  c #31695C",
"n  c #316A5C",
"m  c #316A5D",
"M  c #316B5D",
"N  c #326B5D",
"B  c #326C5D",
"V  c #326D5D",
"C  c #326E5E",
"Z  c #326F5E",
"A  c #32705E",
"S  c #32715E",
"D  c #32715F",
"F  c #32725F",
"G  c #32735F",
"H  c #33735F",
"J  c #33745F",
"K  c #005661",
"L  c #006974",
"P  c #337460",
"I  c #337560",
"U  c #337660",
"Y  c #337760",
"T  c #337761",
"R  c #337861",
"E  c #337961",
"W  c #337A61",
"Q  c #337A62",
"!  c #337B62",
"~  c #347B62",
"^  c #347C62",
"/  c #347D62",
"(  c #347D63",
")  c #347E63",
"_  c #347F63",
"`  c #5E4B40",
"'  c #6C594E",
"]  c #756358",
"[  c #978376",
"{  c #0072A5",
"}  c #00838F",
"|  c #39939F",
" . c #00A9B3",
".. c #00B7FF",
"X. c #00D0FF",
"o. c #39E4FF",
"O. c #3AECFF",
"+. c #39FFFF",
"@. c #62F3FF",
"#. c #B89C8A",
"$. c #AFFFFF",
"%. c #B1F9FF",
"&. c #D9FFFF",
"*. c #FBFFFF",
/* pixels */
"p p p p p p p p p p N / _ / N p p p p p p p p p p p p p C _ _ _ _ _ _ _ _ _ / N p p p p p p A _ _ _ ",
"p p p p p p p p p p N / _ / N p p p p p p p p p p p p p C _ _ _ _ _ _ _ _ _ / N p p p p p p A _ _ _ ",
"p p p p p p p p p p N / _ / N p p p p p p p p p p p p p C _ _ _ _ _ _ _ _ _ / N p p p p p p A _ _ _ ",
"p p p x A A A A A A U ) _ ) U A A A A A A x p p p p p p z C C A W _ _ _ _ _ ) U A A N d p p c C C C ",
"p p p C _ _ _ _ _ _ _ _ _ _ _ _ _ _ _ _ _ C p p p p p p p p p j I _ _ _ _ _ _ _ _ _ I h p p p p p p ",
"p p p C _ _ _ _ _ _ _ _ _ _ _ _ _ _ _ _ _ C p p p p p p p p p j I _ _ _ _ _ _ _ _ _ I h p p p p p p ",
"v v v G _ _ ) E U U U U U U U U U U U U U n p p d z v v v v v N R _ _ ^ Y U U U U U Z f p p p p p p ",
"! ! ! / _ _ ~ B h h h h h h h h h h h h h d p p l I ! ! ! ! ! ~ ) _ _ P l h h h h h f a p p p p p p ",
"_ _ _ _ _ _ ! b p p p p p p p p p p p p p p p p z R _ _ _ _ _ _ _ _ _ G d p p p p p p p p p p p p p ",
"_ _ _ _ ) ) W v p p p p p p p p p p p p p p p p z R _ _ _ _ _ _ ) ) ) F d p p p p p p p p p p p p p ",
"_ _ _ U B B n g p p p p p p p p p p p p p p p p z R _ _ _ _ _ ^ D B B x a p p p p p p p p p p p p p ",
"_ _ _ A p p p p p p p p p p p p p p p p p p p p z R _ _ _ _ _ Q b p p p p p p p p p p p p p p p p p ",
"_ _ _ A p p p p p p p p p p p p p p p p p p p p z R _ _ _ _ _ Q b p p p p p p p p p p p p p p p p p ",
"_ _ _ U m m m m m m m m m n h p p p p p p p p p z R _ _ _ _ _ ^ S m m m m m m m m m x s p p p p p p ",
"_ _ _ ) / / / / / / / / / ~ m p p p p p p p p p z R _ _ _ _ _ _ ) / / / / / / / / / P h p p p p p p ",
"_ _ _ _ _ _ _ _ _ _ _ _ _ / N p p p p p p p p p z R _ _ _ _ _ _ _ _ _ _ _ _ _ _ _ _ I h p p p p p p ",
"_ _ _ _ _ _ _ _ _ _ _ _ _ / V f f d p p p p p p l I ^ ^ / _ _ _ _ _ _ _ _ _ _ _ _ _ U z f f f f f f ",
"_ _ _ _ _ _ _ _ _ _ _ _ _ ) E I I C f p p p p p d x b b H _ _ _ _ _ _ _ _ _ _ _ _ _ ^ U I I I I I I ",
"_ _ _ _ _ _ _ _ _ _ _ _ _ _ _ _ _ I h p p p p p p p p p C _ _ _ _ _ _ _ _ _ _ _ _ _ _ _ _ _ _ _ _ _ ",
"_ _ _ _ _ _ _ _ _ _ _ _ _ _ _ _ _ I h p p p p p p p p p C _ _ _ _ _ _ _ _ _ _ _ _ _ _ _ _ _ _ _ _ _ ",
"_ _ _ _ _ _ / I D D D D D F W _ _ E Z V V V V V V V V V I _ _ / I D D D D D D D D D D D D D E _ _ _ ",
"_ _ _ _ _ _ ! b p p p p p d G _ _ _ _ _ _ _ _ _ _ _ _ _ _ _ _ Q b p p p p p p p p p p p p p A _ _ _ ",
"_ _ _ _ _ _ ! b p p p p p d G _ 7 7 7 % % % _ _ _ 7 X.@.%.% % Q b p p p p p p p p p p p p p A _ _ _ ",
"E E E E E E U x p p p p p d G = i @.%.*.y #.% X ; L o.X.@.[ #.% B l l f p p p p p p p p p p A _ _ _ ",
"x x x x x x z d p p p p p d G ; 8 X.@.@.y #.[ ] < 8 L X.X.] [ % W T T C a p p p p p p p p p A _ _ _ ",
"p p p p p p p p p p p p p d G _ ; 8 i  .X.y [ [ r $ 8 L +.` ] [ % _ _ G d p p p p p p p p p A _ _ _ ",
"p p p p p p p p p p p p p d G _ X : : 8 i  .y [ ] 0 $ u  .` ] ] [ % % 7 d p p p p p p p p p A _ _ _ ",
"p p p p p p d m Z Z Z Z Z Z Z Z X < 0 5 : 6 , ` ] ] $ < u y 9 ] ] ] y %.7 p p p p p p p p p A _ _ _ ",
"p p p p p p h I _ _ _ _ _ / N p X w ] [ , ] y ` ` ] 2 2 . u 6 ` ` w y %.@.7 p p p p p p p p A _ _ _ ",
"p p p p p p h I _ _ _ _ _ / N p   2 [ y %.*.@.y y 5 ` 2 & & , ` 3 y %.@...; p p p p p p p p A _ _ _ ",
"x x x x x x m R _ _ ^ R T U v ; @ 4 ' y @.@.X.+. .} y , e 3 3 3 y $.@.} = x x x x x x x x x A T T T ",
"E E E E E E Q / _ _ I z l k ; &.5 2 - X.+.X. .} 8 : ` e e 3 3 @.@.X.} = W E E E E E E E E E C l l l ",
"_ _ _ _ _ _ _ _ _ _ G d p p ; O.5 $ - L  .} i 8 : ` e e , 3 @.+...i +   _ _ _ _ _ _ _ _ _ _ C p p p ",
"_ _ _ _ _ _ _ _ _ _ G d p p ; ..O.@ $ : 8 | 8 : ` e 3 X.] 3 X.i i + @ < X _ _ _ _ _ _ _ _ _ C p p p ",
"_ _ _ _ _ _ _ _ _ _ W F D ; 8 8 } O < < @ : } ..X.X.y ] ` : 8 : < O...} K ; _ _ _ _ E Z V V l p p p ",
"_ _ _ _ _ _ _ _ _ _ _ _ _ _ ; = 8 O.5 < # @ 5 } } 5 ] 0 0 # 5 < O...} = = _ _ _ _ _ I h p p p p p p ",
"_ _ _ _ _ _ _ _ _ _ _ _ _ _ _ _ = O.&.5 < @ $ O > t r 0 $ 5 ....} = = _ _ _ _ _ _ _ I h p p p p p p ",
"I I I E _ _ ) R I I I I I I ~ _ = ..O.5 * < $ $ 1 # t q $ { i i = I I I I I I ~ _ _ R B b b b b b b ",
"f f f Z _ _ ! M f f f f f k P _ = i ..# o o < $ $ $ # < : i = ; M f f f f f k P _ _ ) ^ ^ ^ ^ ^ ^ ^ ",
"p p p C _ _ ! b p p p p p d G _ _ 8 i X X X @ < < X X X = ; _ Q b p p p p p d G _ _ _ _ _ _ _ _ _ _ ",
"d d d Z _ _ ! n d d d d d g J _ _ = = _ _ _ X X X / / / / / / E v p p p p p d F / / ) _ _ _ _ _ _ _ ",
"J J J E _ _ ( T J J J J J P ! _ _ _ _ _ _ _ _ _ Q Z m m m m m b f p p p p p a z m m S ^ _ _ _ _ _ _ ",
"_ _ _ _ _ _ _ _ _ _ _ _ _ _ _ _ _ _ _ _ _ _ _ _ R z p p p p p p p p p p p p p p p p b ! _ _ _ _ _ _ ",
"_ _ _ _ _ _ _ _ _ _ _ _ _ _ _ _ _ _ _ _ _ _ _ _ R z p p p p p p p p p p p p p p p p b ! _ _ _ _ _ _ ",
"_ _ _ _ _ _ / U F F F F F H Q _ _ _ _ _ _ R F F C h p p p p p p p p p p p p a x B B D ^ _ _ R F F F ",
"_ _ _ _ _ _ ! b a a a a a f H _ _ _ _ _ _ C a a a p p p p p p p p p p p p p d F ) ) ) _ _ _ C a a a ",
"_ _ _ _ _ _ ! b p p p p p d G _ _ _ _ _ _ C p p p p p p p p p p p p p p p p d G _ _ _ _ _ _ C p p p ",
"_ _ _ / ! ! Y c p p p p p d G _ _ _ _ _ _ C p p p p p p p p p p p p p d h h l I _ _ ) ~ ! ! B p p p ",
"_ _ _ P v v x f p p p p p d G _ _ _ _ _ _ C p p p p p p p p p p p p p v I U Y ^ _ _ R N v v h p p p ",
"_ _ _ A p p p p p p p p p d G _ _ _ _ _ _ C p p p p p p p p p p p p p N / _ _ _ _ _ I h p p p p p p ",
"_ _ _ A p p p p p p p p p d G _ _ _ _ _ _ C p p p p p p p p p p p p p N / _ _ _ _ _ I h p p p p p p ",
"A A A v p p p p p p l V C Z R _ _ ! F A A x p p p p p p p p p d b C C P ) _ _ _ _ _ W A C C C C C C ",
"p p p p p p p p p p N / _ _ _ _ _ I h p p p p p p p p p p p p j I _ _ _ _ _ _ _ _ _ _ _ _ _ _ _ _ _ ",
"p p p p p p p p p p N / _ _ _ _ _ I h p p p p p p p p p p p p j I _ _ _ _ _ _ _ _ _ _ _ _ _ _ _ _ _ ",
"p p p p p p p p p p N / _ _ _ _ _ I h p p p p p p p p p p p p j I _ _ _ _ _ _ _ _ _ _ _ _ _ _ _ _ _ "
};
