/* XPM */
static char *result[] = {
/* columns rows colors chars-per-pixel */
"50 55 179 2 ",
"   c #1C0F1C",
".  c #1E111E",
"X  c #1F1A1E",
"o  c #22141E",
"O  c #26191E",
"+  c #2A1C1E",
"@  c #1E1422",
"#  c #221522",
"$  c #281724",
"%  c #251A24",
"&  c #2A1D24",
"*  c #24172E",
"=  c #251B29",
"-  c #2A1E2A",
";  c #301D24",
":  c #321E2B",
">  c #2A1E33",
",  c #281C3B",
"<  c #301E33",
"1  c #3C1B33",
"2  c #232224",
"3  c #2D2125",
"4  c #25232A",
"5  c #2D222B",
"6  c #272828",
"7  c #2D282C",
"8  c #322324",
"9  c #32252D",
"0  c #38252F",
"q  c #34282E",
"w  c #3A292E",
"e  c #272433",
"r  c #2C2332",
"t  c #272D36",
"y  c #2B2D35",
"u  c #2D233A",
"i  c #2D2A3D",
"p  c #332531",
"a  c #3A2534",
"s  c #352A32",
"d  c #3A2C34",
"f  c #30273F",
"g  c #35293B",
"h  c #3C2E3A",
"j  c #263C35",
"k  c #3D3136",
"l  c #36343B",
"z  c #3E323A",
"x  c #333335",
"c  c #4E1D35",
"v  c #461E3A",
"b  c #4B1E39",
"n  c #501D36",
"m  c #5C1D34",
"M  c #5E1C3D",
"N  c #671827",
"B  c #641A2D",
"V  c #6F1A2D",
"C  c #771827",
"Z  c #771A2E",
"A  c #78192E",
"S  c #611C32",
"D  c #6B1E36",
"F  c #641F3B",
"G  c #44252F",
"H  c #462130",
"J  c #4C2533",
"K  c #422D36",
"L  c #44253C",
"P  c #4B263A",
"I  c #442E3A",
"U  c #492D3B",
"Y  c #512535",
"T  c #5B2437",
"R  c #512339",
"E  c #43343B",
"W  c #48303E",
"Q  c #46393E",
"!  c #67202E",
"~  c #6B233C",
"^  c #72233C",
"/  c #7B233E",
"(  c #2F473F",
")  c #2F2644",
"_  c #2F2C42",
"`  c #2F2E4B",
"'  c #322A44",
"]  c #37234C",
"[  c #342C4B",
"{  c #3C2244",
"}  c #2F314F",
"|  c #3D3443",
" . c #35304A",
".. c #39324C",
"X. c #342952",
"o. c #3A2B5F",
"O. c #3B2E55",
"+. c #373355",
"@. c #3B3554",
"#. c #3C3A55",
"$. c #35345B",
"%. c #34385C",
"&. c #3B3C5C",
"*. c #363563",
"=. c #3B3860",
"-. c #3B366A",
";. c #393673",
":. c #402343",
">. c #4A2F42",
",. c #422449",
"<. c #4C2648",
"1. c #403543",
"2. c #4F3243",
"3. c #453B41",
"4. c #4A3E44",
"5. c #42374E",
"6. c #42394C",
"7. c #483D4E",
"8. c #543947",
"9. c #533A48",
"0. c #523344",
"q. c #412858",
"w. c #423B53",
"e. c #43305F",
"r. c #712841",
"t. c #2E4C4A",
"y. c #2B4342",
"u. c #3C4747",
"i. c #324D45",
"p. c #334E4A",
"a. c #34514F",
"s. c #314C56",
"d. c #2F5B55",
"f. c #375451",
"g. c #305F59",
"h. c #316453",
"j. c #31635A",
"k. c #39645F",
"l. c #326B5D",
"z. c #396D5C",
"x. c #32715F",
"c. c #33795F",
"v. c #356F60",
"b. c #396E61",
"n. c #337560",
"m. c #347E63",
"M. c #3E7A64",
"N. c #4C4146",
"B. c #474249",
"V. c #4E444B",
"C. c #45494D",
"Z. c #524546",
"A. c #54464C",
"S. c #5B404D",
"D. c #52484D",
"F. c #534F54",
"G. c #594F56",
"H. c #465855",
"J. c #495D5C",
"K. c #575659",
"L. c #4B655E",
"P. c #57625F",
"I. c #4E4767",
"U. c #406761",
"Y. c #406C64",
"T. c #4C6D62",
"R. c #487469",
"E. c #467365",
"W. c #6D7574",
"Q. c #767477",
"!. c #851625",
"~. c #81263E",
"^. c #892340",
"/. c #952642",
"(. c #368064",
"). c #388166",
"_. c #47816E",
"`. c #3D3788",
"'. c #3C3784",
/* pixels */
"g.g.g.g.g.g.g.g.g.g.l.m.m.m.l.g.g.k.g.g.g.g.s.k Q g.g.g.l.(.(.m.m.m.m.(.m.m.m.l.g.g.g.g.g.g.x.(.m.(.",
"g.g.g.g.g.g.g.g.g.g.l.m.m.m.l.g.g.k.g.g.g.g.a.d 3.j.g.g.R.M.(.).m.m.m.m.m.(.m.l.g.g.g.g.g.g.x.m.m.m.",
"g.g.g.j.g.j.g.g.g.g.l.m.m.m.l.j.g.p.l B.J.g.p.d N.l j.k.Q.P.(.(.m.m.m.m.(.(.m.l.g.g.g.g.g.g.x.(.(.m.",
"g.g.g.j.l.x.l.x.x.l.c.m.m.m.x.l.x.x.p.N.T.j.f.4.G.3.g.g.u.k l.x.m.(.m.m.m.m.m.n.x.l.l.g.g.g.j.x.l.x.",
"g.g.g.x.(.(.m.(.(.m.(.(.m.c.m.m.m.c.( i.(.x.p.7 k F.g.j.x k k.j.n.m.m.m.(.m.m.m.(.m.n.g.g.g.g.g.g.g.",
"g.g.g.l.(.m.m.m.m.m.m.m.m.6 h.m.m.j % i.(.l.t.; E K.g.g.9 s g.j.c.(.m.m.m.(.m.m.m.(.n.j.g.g.g.g.g.d.",
"l.j.l.x.m.m.m.c.n.n.n.n.c.y 5 h.c.j % 9 i.l.t.& E b.j.l.s s b.b._.W.3.s c.n.n.n.n.n.x.j.g.g.g.g.g.g.",
"c.m.c.m.m.m.m.l.j.j.j.j.6 Q N.3 O X $ F.z.j.t.& h E.c.m.7 3 B.z.H.D.4.3.j.j.j.j.j.j.g.g.g.g.g.g.g.g.",
"m.m.(.m.(.(.c.l.g.g.g.g.2 9 s % % & 9 s C.C.6 3 - k T.4 5 9 d x = q d s j.g.g.g.g.g.g.g.g.g.g.g.g.g.",
"m.(.(.m.m.(.c.l.g.g.g.g.O 5 7 % & 3 9 9 9 s 3 G J q d - 9 9 3 3 % 3 8 3 j.g.g.g.g.g.g.g.g.g.g.g.g.g.",
"m.m.m.n.l.l.l.j.g.g.g.g.% 3 & O 3 5 5 5 9 5 & H T 3 3 9 3 e 3 9 = & 3 = g.g.g.g.g.g.g.g.g.g.g.g.g.g.",
"(.(.m.x.g.g.g.g.g.g.g.g.# & % % 9 q 9 q q 5 5 p U 3 5 9 9 7 9 s 3 & 3 3 g.g.g.g.g.g.g.g.g.g.g.g.g.g.",
"m.(.m.x.d.g.d.d.g.g.g.g.@ @ O = 5 9 9 q p q 9 5 5 5 s 9 q 7 9 9 3 & # # g.g.g.g.g.d.g.g.g.g.g.g.g.g.",
"m.m.(.n.l.l.l.l.l.l.l.l.@ 4 3 5 9 5 - % % 3 9 3 # r 5 & 3 3 5 5 3 5 3 & l.l.l.l.l.l.l.g.g.g.g.g.g.g.",
"(.m.m.m.m.m.m.m.c.m.m.m.6 k k s 9 - %   . @ = 4 = - # . . @ % 5 9 k l g c.m.m.m.m.m.x.j.g.g.g.g.g.g.",
"m.(.(.m.m.m.m.m.m.m.m.m.6 | Q s 9 % # @ @ # = = 5 = @   . @ @ 5 q Q 3.| m.m.m.m.m.m.c.j.g.g.g.g.g.g.",
"(.m.m.m.(.m.m.(.(.m.m.(.s N.N.k 9 O . @ @ # 5 p s - @ @ @ @   - s 4.V.V.m.m.(.m.m.(.n.j.j.j.j.j.j.j.",
"c.m.(.(.m.(.m.m.m.m.(.m.x N.A.k 8 # # @ @ = r d h 5 = @ # # . & s 4.D.V.m.m.m.(.(.m.m.c.x.x.x.c.c.x.",
"(.(.(.m.m.(.m.(.(.m.(.m.4 3 w 5 % # # @ @ = 5 a I - - * # % o % - p p 7 (.(.m.m.m.(.m.m.m.(.(.m.(.(.",
"(.(.m.m.(.m.(.(.(.m.m.m.4 k Q 9 o   @ # # = 5 a 2.d p = % #     - 6.1.s m.m.(.m.(.m.m.m.m.(.m.m.(.(.",
"(.(.(.(.m.(.m.x.x.x.x.x.2 E k %     o & % - 9 p d : = = = & .   , *.w.Q n.l.n.l.x.x.x.x.x.x.c.m.(.(.",
"(.c.(.(.m.(.c.l.d.g.g.g.% p z 7 .   # - = - 9 s E p p = = o .   - l h p g.g.g.g.g.d.g.g.g.g.x.m.(.(.",
"(.(.(.c.m.m.c.l.g.g.g.g.= Q 3.- o   @ = r 5 p I 2.q 9 - 9 #     % h Q Q g.g.g.g.g.g.g.g.g.g.x.(.(.c.",
"c.c.c.c.c.c.n.l.g.g.g.g.i @.h %   @ @ % 5 5 q I 8.q - 9 = # # . # 5 q s g.g.g.g.g.g.g.g.g.g.x.m.(.(.",
"j.j.l.l.l.j.l.g.g.g.g.g.t #.B.5 # # @ % 5 9 q E 8.p s 9 - # @ # # z 3.h g.g.g.g.g.g.g.g.g.g.l.(.(.(.",
"g.g.g.g.d.d.g.d.g.g.g.g.4 d s % # # @ % q K E K 8.q d K - # # # # 9 d k j.g.g.g.g.g.g.g.g.d.x.(.(.(.",
"g.g.g.g.g.g.g.g.g.g.g.g.= q E 3 # % % = p U K E S.W W I - = % # > | d s g.g.g.g.g.g.g.g.g.g.x.(.c.(.",
"g.g.g.g.g.g.g.l.l.x.x.l.4 k E % @ - - = > K W E A.K W d = = 3 = u @.w.1.j.g.g.g.g.g.g.g.g.g.l.(.(.(.",
"g.g.g.g.g.g.l.c.m.m.m.(.= d E & o # - 5 p d W E 8.d W p r - % % - @.#...g.g.g.g.g.g.g.g.g.g.x.(.(.(.",
"g.g.g.g.g.g.j.x.m.m.m.m.2 d 3.- @ # - a K d W E U d E w h p %   $ 1.5.| g.g.g.d.g.g.g.g.g.g.x.(.c.(.",
"l.j.l.j.j.j.l.c.m.m.m.c.% d E & # # - d d K Y P P  .@.h K < %   % d j t l.l.l.l.l.l.l.j.l.j.x.x.x.c.",
"c.c.c.c.m.c.c.m.m.m.c.l.% w h : # * - p J B Z J <.-.'.O.a 9 = # % g i t c.c.c.c.x.c.c.c.c.c.x.l.j.j.",
"(.m.(.m.c.(.(.(.(.c.x.j.2 _ y.5 $ = p 0 B !.Z v ,.q.`.o.a q - & & I 3.E m.m.m.(.m.m.m.(.m.m.l.g.g.g.",
"(.(.(.m.(.(.(.(.(.(.x.g.t } z & $ - a c N C S c c v q.<.v a p = $ g 5.w.m.m.(.m.m.(.(.m.m.(.x.g.g.g.",
"(.m.m.(.(.(.(.(.(.(.x.x.} z 3.: # & d L c m ~ D m m F / ~ K p # $ ..=.*.m.m.m.m.(.(.m.x.l.l.j.g.g.g.",
"m.(.m.m.(.(.c.(.(.(.(.(.e | z % @ # u X.] m /.~.V A D ^.^ 1 * @ # 9 [ $.m.m.m.m.m.m.x.g.g.g.g.g.g.g.",
"m.(.(.(.(.(.(.(.m.m.m.m.%.+.| - % = < 1 1 F ~.^ B D v r.P a 5 # $ - r > m.m.m.m.m.(.n.j.g.j.g.g.d.d.",
"x.x.x.m.(.(.(.c.n.n.n.n.t ' &.) * - - 5 1 M F c :.;.'.) - - - % = - 9 & n.c.n.m.m.m.c.l.l.j.j.l.l.l.",
"j.j.j.l.(.c.c.l.j.g.j.g.r 7.I.g # # = > < 1 1 { ;.X.) - p = # @ - Q Z.Z.g.j.j.n.(.m.m.c.m.m.(.m.c.c.",
"g.g.g.l.(.(.c.l.g.g.g.g.7 p s - # % = - - - p f [ p u - - - = @ & 9 q q g.g.j.x.m.(.m.m.m.m.(.(.(.(.",
"g.j.g.x.m.m.c.l.g.j.g.g.+.i 5 # # # # = * 5 p g >.9 y 3 = # @ @ # 3 % = g.g.g.x.m.m.m.m.m.m.m.m.(.(.",
"x.x.x.c.(.(.m.n.n.n.x.n.i y d & .     # = 5 - g I - - 5 = @ .   # s ..$.g.g.g.j.l.l.x.m.m.m.m.(.(.(.",
"(.(.(.m.m.(.m.(.m.m.m.(.7 d E 5 .   . # & = = 5 d * # 5 = #     = k @.@.g.g.g.g.d.g.l.c.(.m.m.(.(.(.",
"(.(.m.(.m.m.(.(.m.m.m.m.7 9 k 5 o   # # # @ @ = - # @ # # # o . = 9 t _ g.g.g.g.g.g.l.c.m.m.(.m.(.(.",
"(.(.m.(.m.m.m.n.x.x.x.x.7 p s 5 .   . .     . # # . .     .     = 9 s s g.g.g.l.l.l.x.m.(.(.c.x.x.x.",
"(.(.(.m.m.m.m.j.g.j.g.j.4 3 5 & # # o # $ o $ $ * * = # o o o * f s 9 9 g.g.j.n.m.m.m.m.m.m.l.g.g.g.",
"(.(.m.m.m.m.m.l.g.g.g.g.# % 3 r > = O O O $ ; : < > ; & $ + O - _ i r 5 g.g.g.x.m.m.m.m.(.(.x.d.g.g.",
"(.(.(.c.n.m.c.j.g.g.g.g.2 & & u p - $ $ + + ; ; ; ; & % O O O & r } } i j.j.j.n.m.m.m.m.c.m.l.g.g.d.",
"c.(.(.x.l.l.l.d.g.g.g.s.e 4 8 3 3 & $ & + + + 3 8 8 + O + O O + = ' [ g m.c.n.m.(.(.c.l.l.l.j.g.g.g.",
"(.(.(.x.d.d.j.j.g.g.g.} t e 3 + + + + + + + ; 8 8 8 + + + + & 5 & 3 9 q m.m.m.m.c.(.x.g.d.d.g.g.g.g.",
"(.(.(.l.g.j.d.j.g.g.j.} k w 3 8 8 8 + + 8 + + + & + O + + + 8 ' 9 8 9 w m.m.m.m.(.(.c.h.g.g.g.g.g.g.",
"l.x.l.l.g.d.j.d.g.d.l.e 3 & + O O + + 8 3 8 8 8 8 w 8 8 8 ; & 3 & O + 8 m.m.m.m.(.(.c.l.x.l.x.l.x.l.",
"g.g.g.g.g.g.g.g.g.g.l.2 2 2 2 X 2 % 2 6 3 3 3 8 8 8 8 + 6 2 X 2 2 2 2 2 m.m.m.m.(.(.c.(.(.(.(.(.(.(.",
"g.g.g.g.g.g.g.g.g.g.l.(.(.(.(.(.(.c.j.g.( O 2 + O 2 4 % d.g.g.j.x.m.(.(.m.m.m.(.(.(.(.(.(.c.(.(.(.(.",
"g.g.g.g.g.g.g.g.d.g.l.(.(.(.(.(.(.n.j.g.g.d.j.t.2 g.g.g.g.g.d.j.x.(.m.m.(.m.m.(.(.(.c.(.(.(.(.(.(.(."
};
