/* XPM */
static char *result[] = {
/* columns rows colors chars-per-pixel */
"50 55 200 2 ",
"   c #170F16",
".  c #1C131B",
"X  c #181017",
"o  c #21161C",
"O  c #24181E",
"+  c #2A1B1E",
"@  c #1D1D22",
"#  c #251A22",
"$  c #2B1D25",
"%  c #2C1E2A",
"&  c #261D2B",
"*  c #341D2B",
"=  c #301C25",
"-  c #281E31",
";  c #1E2224",
":  c #1E2928",
">  c #232326",
",  c #2C2026",
"<  c #252429",
"1  c #2C222A",
"2  c #252B2D",
"3  c #292E2F",
"4  c #332124",
"5  c #32242C",
"6  c #35292E",
"7  c #3A2A2E",
"8  c #39212F",
"9  c #262E32",
"0  c #2E2834",
"q  c #27273A",
"w  c #2F2C3F",
"e  c #292438",
"r  c #332431",
"t  c #3C2434",
"y  c #352B31",
"u  c #3A2D33",
"i  c #3F2C38",
"p  c #3B2638",
"a  c #243433",
"s  c #223A34",
"d  c #27303C",
"f  c #263B3A",
"g  c #2B3637",
"h  c #363134",
"j  c #3E3236",
"k  c #3D3238",
"l  c #363B39",
"z  c #412435",
"x  c #46253B",
"c  c #49263F",
"v  c #452E3F",
"b  c #4B283E",
"n  c #4B2C32",
"m  c #5E263A",
"M  c #512E39",
"N  c #572638",
"B  c #43343D",
"V  c #44393D",
"C  c #483B3F",
"Z  c #29443D",
"A  c #27433B",
"S  c #2E2D43",
"D  c #2C244B",
"F  c #3A2A43",
"G  c #352A4A",
"H  c #392B46",
"J  c #3A3448",
"K  c #2E2C55",
"L  c #302E59",
"P  c #3A385A",
"I  c #3B355A",
"U  c #383260",
"Y  c #3A396B",
"T  c #3F3B75",
"R  c #452B41",
"E  c #4C2C44",
"W  c #4E2848",
"Q  c #4E2546",
"!  c #522D4A",
"~  c #463B41",
"^  c #493D42",
"/  c #4D364E",
"(  c #423344",
")  c #55334D",
"_  c #55394D",
"`  c #583D4D",
"'  c #422D5E",
"]  c #5A2D51",
"[  c #4F3955",
"{  c #403C5E",
"}  c #483A5C",
"|  c #443955",
" . c #573450",
".. c #5A3452",
"X. c #5C3C52",
"o. c #533955",
"O. c #612F55",
"+. c #603857",
"@. c #64335B",
"#. c #6A325D",
"$. c #673F5D",
"%. c #603655",
"&. c #423E60",
"*. c #433D68",
"=. c #58366B",
"-. c #6D3463",
";. c #6A356D",
":. c #713364",
">. c #753569",
",. c #79366D",
"<. c #783A6B",
"1. c #6F3671",
"2. c #7D3972",
"3. c #7B3B77",
"4. c #2A4342",
"5. c #274B41",
"6. c #2A4944",
"7. c #2B4C49",
"8. c #274341",
"9. c #2A5245",
"0. c #2D544A",
"q. c #2D5B4E",
"w. c #2D5651",
"e. c #2F5A55",
"r. c #2F5E58",
"t. c #305F59",
"y. c #2F6454",
"u. c #2F6158",
"i. c #316755",
"p. c #306C56",
"a. c #31635A",
"s. c #326B5D",
"d. c #32725E",
"f. c #33795F",
"g. c #3D4070",
"h. c #337560",
"j. c #347E63",
"k. c #4D4144",
"l. c #4F444B",
"z. c #5A424F",
"x. c #53464A",
"c. c #4C445D",
"v. c #5C4152",
"b. c #554B55",
"n. c #5E5256",
"m. c #66445B",
"M. c #67485B",
"N. c #63535B",
"B. c #62585D",
"V. c #514165",
"C. c #6D406E",
"Z. c #694267",
"A. c #813A76",
"S. c #853D7B",
"D. c #893E7F",
"F. c #85407D",
"G. c #854477",
"H. c #97517B",
"J. c #A7627E",
"K. c #BB7E76",
"L. c #B9777F",
"P. c #BA7A7B",
"I. c #BD8B66",
"U. c #BC866D",
"Y. c #BD8969",
"T. c #BC8272",
"R. c #644E85",
"E. c #8B3F81",
"W. c #8E4184",
"Q. c #904187",
"!. c #954A83",
"~. c #994D85",
"^. c #94448B",
"/. c #9A4B8B",
"(. c #9F508A",
"). c #9A4693",
"_. c #9E4896",
"`. c #9F4998",
"'. c #974590",
"]. c #A3538D",
"[. c #A75A8A",
"{. c #A14D94",
"}. c #A34B9C",
"|. c #A84E9F",
" X c #A65295",
".X c #AB5795",
"XX c #AD5B94",
"oX c #AC559C",
"OX c #A65099",
"+X c #B15E96",
"@X c #B15B9A",
"#X c #A86083",
"$X c #B76F86",
"%X c #B66B8B",
"&X c #B56A8A",
"*X c #B67182",
"=X c #B97383",
"-X c #B36194",
";X c #AA4DA3",
":X c #AE54A1",
/* pixels */
"t.t.t.t.t.t.t.t.t.t.s.j.f.j.a.a.e.e.e.t.w.e.r.e.a # < , i.j.d.f.p.j.f.j.j.j.d.s.r.r.t.t.t.t.s.j.j.j.",
"t.t.t.t.t.t.t.t.t.t.s.j.f.j.s.t.t.t.t.t.r.f w.w.: r h h 6.j.p.9.j.j.j.j.j.f.j.s.r.a.t.t.t.t.s.j.j.j.",
"t.t.t.a.t.t.t.t.t.t.s.j.j.j.s.t.t.r.t.t.w.k 4.6.r b.n.n.l f.Z k.; f.f.j.j.A p.p.t.t.t.t.t.t.d.j.j.j.",
"t.t.t.a.d.d.s.d.d.d.h.j.j.f.f Z q.q.s.i.@ 1 # Z 2 5 r r f p.; h . p.f.s s O 9.f.d.s.s.a.t.t.s.s.h.s.",
"t.t.t.d.j.j.j.j.j.j.j.j.j.d.: X s s 9.p.. 1 > 6.9.1 , $ 9 e.@ B . p.f.> < o A j.j.j.h.a.t.t.t.t.t.t.",
"t.t.t.s.j.j.j.j.j.j.j.j.f.d.: X s s 9.p.. 5 & 6.7.1 , , 9 e.@ j . p.f.> < . Z j.j.j.h.a.t.t.t.t.t.a.",
"a.s.a.h.j.j.j.j.h.h.h.f.f.d.X $ . . 6.d.; 5 < w.w.y 6 6 2 u.> u X A d.1 < 5 # d.f.h.s.a.t.t.t.t.t.t.",
"j.j.j.j.j.j.j.s.a.a.a.a.u.u.. l.^ ^ s 6.X < . f 4.< $ $ 3 f.s 1 . > a V C b.$ a.a.a.a.a.t.t.t.t.t.t.",
"j.j.j.j.j.j.j.s.r.t.t.t.e.r.@ y 6 r . > 5 u $ X # & $ # O 2 o u 5 , . 5 5 h $ r.t.t.t.t.t.t.t.t.t.t.",
"j.j.j.j.j.j.h.s.t.t.t.t.w.w.. 5 1 1 . 5 & 5 1 1 # n M M 4 1 1 6 & 1 O , 1 6 o t.t.t.t.t.t.t.t.t.t.t.",
"j.j.j.h.s.s.s.t.t.t.t.t.e.r.X $ # O , 1 < 4 1 5 O N m m , 1 5 1 1 1 1 # # 1 o t.t.t.t.t.t.t.t.t.t.t.",
"j.j.j.h.t.t.t.t.t.t.t.t.r.r.6.$ # # , 7 1 5 u 1 $ ) ` X.1 5 u 5 1 7 5 # # 5 o e.t.t.t.t.t.t.t.t.t.t.",
"j.j.j.h.r.t.r.t.t.t.r.t.t.t.t.# . o , ,  .:...) y r t t y )  .:...$ $ # # o o t.t.r.t.t.t.t.t.t.t.t.",
"j.j.j.j.s.s.s.s.s.s.s.s.a.s.6.u 6 6 1 t >.:.:.2.G.>.F.F.G.2.>.-.>.R r r y B o s.s.s.a.a.t.t.t.t.t.t.",
"j.j.j.j.j.j.j.j.j.j.j.j.h.j.2 C k B i ..:.:.:.,.S.A.W.W.S.>.2.:.:.@.v B B ~ 1 j.j.j.h.a.t.t.r.r.t.t.",
"j.j.j.j.j.j.j.j.j.j.j.j.h.j.2 ( B ( i ..:.:.:.,.S.A.W.W.A.:.,.:.:.@.i B B ^ % j.j.j.h.a.t.t.a.a.t.t.",
"j.j.j.j.j.j.j.j.j.j.j.j.j.f.# V B B 5 2.:.:.:.D.D.A.Q.Q.Q.>.A.:.:.>.R ( B ~ 6 j.j.j.f.a.a.a.a.a.a.a.",
"j.j.j.j.j.j.j.j.j.j.j.j.j.j.6 B.n.N.v >.:.:.2.D.W.E.D.D.Q.2.E.:.:.-.R N.N.B.V j.j.j.j.h.h.h.h.h.h.h.",
"j.j.j.j.j.j.j.j.j.j.j.j.j.j.a 6 u u % #.:.>.S.W.^.'.D.D.}.^.^.A.:.:.5 y y 6 , j.j.j.j.j.j.j.j.j.j.j.",
"j.j.j.j.j.j.j.j.j.j.j.j.j.j.q.u X.` ..>.,.>.H.K.+X}.^.^.;X).^.A.,.:.#./ / B # j.j.j.j.j.j.j.j.j.j.j.",
"j.j.j.j.j.j.j.h.j.d.d.s.s.d.y.l.7 y ] :.,.,.J.|.+XOX^.^.|.^.D.:.>.:.1.T T b.$ d.h.h.s.h.h.s.h.j.j.j.",
"j.j.j.j.j.j.j.s.a.a.r.a.e.t.p.y ~ B -.:.,.!.[._.:XoX(./.L.Q.D.:.>.:.,.;.;.i $ t.t.t.t.t.t.t.h.j.j.j.",
"j.j.j.j.j.j.j.s.t.t.t.t.t.a.5.^ $.m.>.:.A.~.{.}.+X:X XOX$X!.W.,.A.:.:.X.z.l.$ t.t.t.t.t.t.t.d.j.j.j.",
"j.j.j.j.h.h.h.a.t.t.t.t.t.t.d | ! ! :.:.,.H. X:X=X@X+X+XL.].Q.A.D.:.-.R v h $ t.t.t.t.t.t.t.s.j.j.j.",
"h.s.a.s.a.a.a.a.t.t.t.t.t.t.f | ! ! :.:.,.!.oXoX=X@X-X-X=X].E.S.S.:.-.R R u $ t.t.t.t.t.t.t.d.j.j.j.",
"r.r.t.t.a.t.t.a.t.t.t.t.a.7.q =.M.m.,.:.D.(.oX+XP.-X$X$X=X@X).E.E.:.>.m.m.^ # t.t.t.t.t.t.t.d.j.j.j.",
"a.t.t.t.t.t.t.t.a.t.t.a.t.w.9 j R R :.,.^. X@X=XU.%X=X=XL.@X}.E.E.:.:.E E C $ t.t.t.t.t.t.t.d.j.j.j.",
"r.t.t.t.t.t.r.s.s.d.s.d.s.h.a y v.X.,.:.{..X%X=XU.T.P.P.P.-X;X^.E.:.;.o.o.y # t.t.t.t.t.t.t.d.j.j.j.",
"t.t.t.t.t.t.a.h.j.j.j.j.j.j.a ^ $.$.>.-.).+XL.K.Y.T.Y.Y.U.%X:X'.D.:.=.&.&.c.$ t.t.t.t.t.t.t.d.j.j.j.",
"t.t.t.r.t.t.a.h.j.j.j.j.j.j.6.6 _ _ >.:.W.XXL.Y.U.Y.I.I.Y.$X&X_.E.2.:.[ [ *.- a.t.t.t.t.t.t.s.j.j.j.",
"a.s.a.s.s.a.s.h.j.j.j.j.d.h.a C z.z.>.:.Q..XL.I.Y.Y.I.I.Y.L.=X;XS.A.>.X.v.k.# a.a.s.a.s.s.s.d.h.j.j.",
"h.h.h.j.h.h.j.j.j.j.d.a.a.e.9 u ! ) >.W.].oXL.Y.I.I.I.I.Y.P.=X_.S.>.,.....u % h.h.j.h.h.h.h.s.s.a.s.",
"j.j.j.j.j.j.j.j.j.j.h.r.r.r.d k M.M.,.Q.Q.OXK.I.I.I.I.I.Y.K.&X^.D.>.,.m.m.C % j.j.j.j.j.j.j.d.a.t.t.",
"j.j.j.j.j.j.j.j.j.j.h.a.r.r.9 ^ +.+.>./.^.{.K.I.I.I.I.I.Y.U.&X^.W.,.,. . .k.P j.j.j.j.j.j.j.s.t.t.t.",
"j.j.j.j.j.j.j.j.j.j.j.j.s.h.d ~ +.+.>.^.'.{.K.I.I.I.I.I.Y.U.%X^.Q.,.,. ._ k.P j.j.j.j.s.s.s.a.a.t.t.",
"j.j.j.j.j.j.j.j.j.j.j.j.j.j.K F ` %.,.~.:X.XP.I.I.I.I.I.U.U.%X'./.A.2.C.1.Y S j.j.j.j.a.a.t.t.t.t.t.",
"j.j.j.j.j.j.j.j.j.j.j.j.j.j.a v.Z.Z.:.H.:X%XL.I.I.I.I.Y.T.U.+X}.XXW.,./ / U K j.j.j.h.t.t.t.t.t.t.t.",
"j.j.h.h.j.j.j.h.h.h.h.d.f.d.D H .. .A.G.-X$XT.U.Y.Y.I.I.Y.L.@XOX&XD.,. . .y S j.j.j.h.s.s.a.s.s.s.a.",
"a.a.a.d.j.j.j.s.a.a.a.a.a.r.e J c.Y 3.A.[.$XT.Y.Y.Y.I.I.I.L.-X:X[.E.#.t p 5 o h.j.j.j.j.j.j.j.j.j.j.",
"a.r.r.d.j.j.j.s.t.t.t.t.t.a.Z } R.R.,.,.'.*XT.I.I.I.I.I.I.P.$X%X}.S.:...` k.5 f.j.j.j.j.j.j.j.j.j.j.",
"a.r.r.h.j.j.j.s.t.a.a.a.e.t.9 6 z j -.2.).+XK.I.I.I.I.I.Y.T.T.$X;XQ.>.R R y 1 h.j.j.j.j.j.j.j.j.j.j.",
"h.h.h.j.j.j.j.h.d.h.h.h.d.d.D F 5 5 -.D.{.+XT.I.I.I.I.I.Y.Y.T.-X;XQ.-.t t $ o a.s.s.s.j.j.j.j.j.j.j.",
"j.j.j.j.j.j.j.j.j.j.j.j.f.d.e ( )  .>.W.;XoXP.I.I.I.I.I.I.I.L.@X`.W.:... .P - u.t.t.s.j.j.j.j.j.j.j.",
"j.j.j.j.j.j.j.j.j.j.j.j.j.f.5.y v B >.D.{..XP.I.I.I.I.I.I.Y.=X}.}.S.>._ ) } w r.t.t.a.j.j.j.j.j.j.j.",
"j.j.j.j.j.j.j.h.d.h.d.d.s.p.Z u B v >.F.{..XK.I.I.I.I.I.Y.Y.=X}.}.S.>. . .} S s.s.s.d.j.j.j.j.h.h.h.",
"j.j.j.j.j.j.j.s.r.t.r.a.r.r.i.k t y #.W.XX+XL.K.I.I.I.I.Y.P.&XOXW.>.-.i i y g.d.j.j.j.j.j.j.d.a.t.t.",
"j.j.j.j.j.j.j.s.t.t.t.t.r.a.q.u y y #.S.{.+XL.U.Y.Y.Y.Y.T.=X+X|.^.2.-.h v y G h.j.j.j.j.j.j.d.t.t.t.",
"j.j.j.j.j.h.h.a.t.t.t.t.r.a.0., $ $ ] #.A.!.[.L.$X$X*XL.$X+X}.E.2.-.=.0 0 1 $ h.j.j.j.h.j.j.s.t.t.a.",
"j.j.j.h.a.s.a.a.t.t.t.t.t.a.q.# # # I F z x Q >.'.}.}.`.).,.] Q x t I G S e . j.j.j.j.s.a.s.a.t.t.t.",
"j.j.j.d.r.r.t.t.t.t.t.t.w.t.r.1 1 1 F 1 # - = + z ! Q Q x $ # + O O 8 I U Y $ j.j.j.d.a.t.t.t.t.t.t.",
"j.j.j.h.t.t.t.t.t.t.t.r.t.e.r 5 * 4 $ = = * t c O.O.O.O.O.E z = $ = = 5 * y & j.j.j.j.a.t.a.t.t.t.t.",
"j.h.d.a.t.t.t.t.t.t.a.s.s.s.~ y , 4 + = = + o . o O O o o o o + $ G * $ , 7 B j.j.j.j.j.s.s.s.d.d.s.",
"t.t.t.t.t.t.t.t.t.t.s.j.d.f.d.l h y y t 8 x z z z z z z z z z b v ( y 4 5 4 7 j.j.j.j.j.j.j.j.j.j.j.",
"t.t.t.t.t.t.t.t.t.t.s.j.d.f.d.l h y 6 z z x z z z z z z z z z b p J y 4 8 4 7 j.j.j.j.j.j.j.j.j.j.j.",
"t.t.t.t.t.t.t.t.r.t.s.j.j.j.j.h.p.i.w.w.7.= * c ! ] ] ] ! b 8 5 p.j.j.f.p.f.y.j.j.j.j.j.j.j.j.j.j.j."
};
