/* XPM */
static char *result[] = {
/* columns rows colors chars-per-pixel */
"50 55 178 2 ",
"   c #010101",
".  c #080605",
"X  c #060806",
"o  c #0A0906",
"O  c #060A09",
"+  c #0E0D0A",
"@  c #120E0B",
"#  c #0D110D",
"$  c #14120C",
"%  c #19130E",
"&  c #1B1A0E",
"*  c #071110",
"=  c #0C1612",
"-  c #0D1914",
";  c #0D1B1A",
":  c #161511",
">  c #1C1512",
",  c #121B14",
"<  c #1C1C12",
"1  c #121E19",
"2  c #201714",
"3  c #221C14",
"4  c #251C19",
"5  c #281F1B",
"6  c #0E231C",
"7  c #102016",
"8  c #15231A",
"9  c #19241A",
"0  c #1A2A1D",
"q  c #242315",
"w  c #2B221C",
"e  c #232C1D",
"r  c #2D2D1B",
"t  c #30271F",
"y  c #312D1D",
"u  c #2B311C",
"i  c #34311E",
"p  c #0F2320",
"a  c #132522",
"s  c #142A25",
"d  c #1A2D25",
"f  c #162F2B",
"g  c #143226",
"h  c #1C3223",
"j  c #16332B",
"k  c #1A332E",
"l  c #1B392A",
"z  c #1A3431",
"x  c #1B3B34",
"c  c #1F3F3A",
"v  c #212F27",
"b  c #342C22",
"n  c #382F24",
"m  c #263322",
"M  c #293425",
"N  c #223827",
"B  c #273529",
"V  c #2A3529",
"C  c #2E3A2C",
"Z  c #243B2B",
"A  c #343220",
"S  c #3A3423",
"D  c #343926",
"F  c #3B3A24",
"G  c #3F3729",
"H  c #223C34",
"J  c #2A3E30",
"K  c #413D27",
"L  c #403729",
"P  c #443C2B",
"I  c #483F2E",
"U  c #1B4434",
"Y  c #1C4837",
"T  c #1E453D",
"R  c #1C4D3B",
"E  c #1C503D",
"W  c #21422E",
"Q  c #2B432E",
"!  c #36402C",
"~  c #3C432E",
"^  c #234433",
"/  c #284030",
"(  c #274C37",
")  c #2C4834",
"_  c #20413C",
"`  c #214E3C",
"'  c #294D3D",
"]  c #344631",
"[  c #3E4731",
"{  c #3E4830",
"}  c #354E35",
"|  c #375137",
" . c #45432C",
".. c #4A452D",
"X. c #46482F",
"o. c #4B492D",
"O. c #534E2F",
"+. c #4B4330",
"@. c #474931",
"#. c #4C4C31",
"$. c #534C33",
"%. c #584E35",
"&. c #4B5134",
"*. c #545234",
"=. c #5A5436",
"-. c #5C5937",
";. c #555638",
":. c #5C563A",
">. c #545C3B",
",. c #5E5A3A",
"<. c #615B36",
"1. c #61573A",
"2. c #625C3C",
"3. c #65623E",
"4. c #69643E",
"5. c #6F6A3E",
"6. c #214642",
"7. c #234A45",
"8. c #254D48",
"9. c #245442",
"0. c #225A46",
"q. c #295A44",
"w. c #25524B",
"e. c #2A544E",
"r. c #245D4A",
"t. c #285D4D",
"y. c #2B5651",
"u. c #2D5B55",
"i. c #2F5E58",
"p. c #305F59",
"a. c #27644D",
"s. c #2B674E",
"d. c #2C6454",
"f. c #246952",
"g. c #2C6C54",
"h. c #2F6458",
"j. c #2E6D59",
"k. c #31635A",
"l. c #316B5D",
"z. c #2D7157",
"x. c #2E7359",
"c. c #32725E",
"v. c #31795E",
"b. c #337560",
"n. c #347E63",
"m. c #655D40",
"M. c #685F40",
"N. c #676241",
"B. c #6B6442",
"V. c #6E6944",
"C. c #736C45",
"Z. c #746E48",
"A. c #786F48",
"S. c #787046",
"D. c #77704A",
"F. c #7B744A",
"G. c #7E7A4A",
"H. c #7F7850",
"J. c #80774C",
"K. c #827B4D",
"L. c #837D52",
"P. c #8B8353",
"I. c #8F8955",
"U. c #8D8659",
"Y. c #8E885A",
"T. c #938B56",
"R. c #928A5A",
"E. c #97905E",
"W. c #9D955D",
"Q. c #A0965F",
"!. c #9B9462",
"~. c #A29B65",
"^. c #ABA266",
"/. c #AFA668",
"(. c #B4AB6B",
"). c #BEB671",
"_. c #C3BA73",
"`. c #CBC278",
/* pixels */
"p.p.p.p.p.p.p.p.p.p.l.n.n.n.h.8.x B  .N.R.R.R.R.R.R.R.R.R.R.D.:.M l a.z.n.n.n.l.i.p.p.p.p.p.l.n.n.n.",
"p.p.p.p.p.p.p.p.p.p.l.n.n.v.w.H C  .$.,.B.M.M.M.M.M.M.m.M.M.m.:.#.] ^ 0.v.v.n.l.p.p.p.p.p.p.c.n.n.n.",
"p.p.p.k.p.p.p.p.p.p.l.n.n.v.x 9  .,.B.$.5 5 5 5 w w w b w b I m.C.,.9 g z.n.n.j.p.p.p.p.p.p.l.n.n.n.",
"p.p.p.k.c.c.l.c.c.l.n.n.n.v.U 1 m G +.G 4 5 5 4 4 4 n %.M.F.L.R.T.5.& g z.v.n.v.b.l.l.k.p.p.l.l.b.l.",
"p.p.p.c.n.n.n.n.n.n.n.n.n.v.Y 7 < 5 b t 4 5 5 t t t $.K.~.(.(.(.Q.5.3 g l.n.n.n.n.n.b.k.p.p.p.p.p.p.",
"p.p.p.l.n.n.n.n.n.n.n.n.n.v.Y 8 F o.=.P 4 w n 1.J.J.J.J.A.Z.A.C.2. .% g g.n.n.n.n.n.b.k.p.p.p.p.p.p.",
"l.k.k.c.n.n.n.n.c.b.b.b.b.x.x 0 F -.C.1.P I $.J.T.T.K.2.%.I I I S w + s g.c.b.b.b.b.l.k.p.p.p.p.p.p.",
"n.n.n.n.n.n.n.l.k.k.k.k.k.i.f 1 A $.C.F.J.J.J.A.A.4.%.L n w w 5 4 % o a y.p.p.p.k.k.k.k.p.p.p.p.p.p.",
"n.n.n.n.n.n.n.k.k.p.p.p.p.u.z = 3 i *.5.K.J.S.=.P n y 5 5 4 4 4 > @ o a e.p.p.p.p.p.p.p.p.p.p.p.p.p.",
"n.n.n.n.n.n.n.k.p.p.p.p.p.u.z * O % y O.5.5.<.y @ . . @ % 4 4 4 2 $ . a e.u.p.p.p.p.p.p.p.p.p.p.p.p.",
"n.n.n.b.l.l.k.k.p.p.p.p.i.u.f * X o $ 3 y r q $ .   . @ > 4 4 4 2 $ . a e.p.p.p.p.p.p.p.p.p.p.p.p.p.",
"n.n.n.b.p.p.k.p.p.p.p.p.h.i.f *                     . @ > 4 4 4 > @ . a e.p.p.p.p.p.p.p.p.p.p.p.p.p.",
"n.n.n.b.p.p.p.p.p.p.p.p.p.u.f *                     . @ > 5 4 4 2 @ . a y.u.p.p.p.i.p.p.p.p.p.p.p.p.",
"n.n.n.n.l.k.l.l.l.l.l.k.l.k.z * O                   . @ > 4 4 4 > % o s u.l.k.l.l.l.k.p.p.p.p.p.p.p.",
"n.n.n.n.n.n.n.n.n.n.n.n.n.v.x *                     . @ > 4 4 4 > @ . g g.v.n.n.n.n.b.k.p.p.p.p.p.p.",
"n.n.n.n.n.n.n.n.n.n.n.n.n.b.9.f ; X               . @ > 2 4 2 % : 7 j ` v.n.n.n.n.n.b.k.p.p.p.p.p.p.",
"n.n.n.n.n.n.n.n.n.n.n.n.n.n.h.8.f -             . @ > 4 4 4 > @ = g 0.x.n.n.n.n.n.n.n.j.k.k.k.p.k.p.",
"n.n.n.n.n.n.n.n.n.n.n.n.n.n.v.d.U ;           . @ > 2 4 4 4 > @ # g f.v.n.n.n.n.n.n.n.v.b.n.b.b.b.b.",
"n.n.n.n.n.n.n.n.n.n.n.n.n.n.n.x.R 6 O     . . @ > 2 w b S L t 3 - g g.n.n.n.n.n.n.n.n.n.n.n.n.n.n.n.",
"n.n.n.n.n.n.n.n.n.n.n.n.n.n.n.z.Y 6 X X o . @ > 2 4 n *.B.A.<.F 9 g g.n.n.n.n.n.n.n.n.n.n.n.n.n.n.n.",
"n.n.n.n.n.n.n.b.n.c.c.c.l.c.x.s.( Z r r i S S L P P %.C.J.L.S.1.D Z q.g.c.c.c.c.c.c.c.c.b.l.b.n.n.n.",
"n.n.n.n.n.n.n.l.p.p.p.p.h.i.t.q.| &.-.3.V.C.5.5.C.4.S.K.L.I.K.C.;.{ H 7.y.i.i.i.p.k.p.p.p.p.b.n.n.n.",
"n.n.n.n.n.n.n.l.p.p.p.p.y.e.' } >.C.I.E.W.T.P.P.L.P.J.<.%...=.2.C.2.D H 8.y.i.i.p.p.p.p.p.p.c.n.n.n.",
"n.n.n.n.b.b.b.k.p.p.p.p.8.c ) &.4.K.W.^./.W.K.K.K.K.4.K w 2 L %.C.C.;.] x 6.y.i.p.p.p.p.p.p.l.n.n.n.",
"l.l.k.l.k.k.k.k.p.p.p.p.c 1 *.F.A.C.C.F.P.*.q q q q 3 $ @ @ 5 n $.B.R.3.< k w.y.p.p.p.p.p.p.b.n.n.n.",
"p.k.p.p.k.p.p.p.p.p.p.p.z + *.K.C.M.:.M.F.S       .   . + % 2 w L m.!.V.+ a 7.y.p.p.p.p.p.p.l.n.n.n.",
"p.p.p.p.p.p.p.p.p.p.p.k.z O #.A.M.m.:.M.F.D           @ > 2 4 5 G :.U.2.+ s 8.y.p.p.p.p.p.p.l.n.n.n.",
"p.p.p.p.p.p.k.l.c.c.l.b.x + o.A.F.Z.B.M.B.-...4 @ + @ > 2 4 b L :.A.I.2.+ a 8.y.p.p.p.p.p.p.b.n.n.n.",
"p.p.p.i.p.p.k.b.n.n.n.n.Y # @.A.L.L.Z.M.1.K.E.O.w 4 4 w w b G %.F.U.U.:.+ s 8.y.p.p.p.p.p.p.c.n.n.n.",
"p.p.p.k.p.p.k.b.n.n.n.n.a.x ] @.$.*.:.B.J.~.(.J.,.:.:.:.:.1.:.:.*.*.*.] d T e.u.p.p.p.p.p.p.l.n.n.n.",
"k.l.l.k.k.l.k.n.n.n.n.b.g.q.) M e u G ,.K.W.^.P.Z.C.C.C.C.C.,.#.i r M / 7.e.k.k.k.k.l.l.l.k.c.b.n.n.",
"b.b.b.n.b.b.b.n.n.n.b.k.i.i.7.k 1 : q F ,.4.V.,.*.*.*.&.*.$.K r & 7 l ` g.v.b.b.n.n.b.b.n.b.l.k.k.l.",
"n.n.n.n.n.n.n.n.n.n.b.h.i.i.y.c p - % r  .o.o.i i r r i i F r q # 6 E g.n.n.n.n.n.n.n.n.n.n.b.p.p.p.",
"n.n.n.n.n.n.n.n.n.n.b.k.p.p.p.y.k 1 # q i i r $   . . . $ q q & - g g.n.n.n.n.n.n.n.n.n.n.n.l.p.p.p.",
"n.n.n.n.n.n.n.n.n.n.n.n.c.c.c.d.U d r o.G.C.3.q . @ $ $ b @.@.G 0 g g.n.n.n.n.n.n.n.n.l.l.l.k.k.p.p.",
"n.n.n.n.n.n.n.n.n.n.n.n.n.n.n.x.Y N D B.~.!.L.i . @ 2 4 P B.B.;.e g g.n.n.n.n.n.n.n.b.k.k.p.p.p.p.p.",
"n.n.n.n.n.n.n.n.n.n.n.n.n.n.n.x.Y N D B.~.!.L.i . % 2 4 P B.N.;.e g g.n.n.n.n.n.n.n.b.k.p.p.p.p.p.p.",
"n.n.b.b.n.n.n.b.b.b.b.b.b.b.n.x.Y N ~ 5.~.!.L.i . @ 2 4 P B.M.:.e g d.v.v.v.b.n.n.n.b.l.l.k.l.l.l.l.",
"k.k.k.l.n.n.n.l.k.p.k.k.k.k.b.j.Y N D V.~.!.L.i . % 2 4 P M.B.*.0 6 w.k.p.k.k.b.n.n.n.b.n.n.n.n.n.n.",
"p.p.p.l.n.n.n.l.p.p.p.p.p.p.t.9.) ] o.*.2.N.-...S 3 % 2 n $.:.:. .D x 7.u.p.p.b.n.n.n.n.n.n.n.n.n.n.",
"k.i.h.b.n.n.b.l.k.p.k.p.p.i.T l { &.=.F & q r 3.B.r % % 4 b +.:.M.&.8 f y.u.k.c.n.n.n.n.n.n.n.n.n.n.",
"b.b.b.n.n.n.n.b.b.b.b.b.b.l.U h X.-.,.F o + 9 B.F.i % % 2 w I :.V.;.< a e.u.k.k.l.l.l.n.n.n.n.n.n.n.",
"n.n.n.n.n.n.n.n.n.n.n.n.n.v.U 0 X.-.<.S . . % V.K.i $ @ > 4 P :.Z.,.> a e.p.p.p.p.p.l.b.n.n.n.n.n.n.",
"n.n.n.n.n.n.n.n.n.n.n.n.n.v.U 0 X.-.,.S   . & B.L.i % @ > 5 P :.Z.,.> 9 e.p.p.k.p.p.l.n.n.n.n.n.n.n.",
"n.n.n.n.n.n.n.b.b.c.c.c.x.s.^ m #.*.*.u     % ,.D.F q % % 4 L 1.D.B.b k 7.e.p.h.l.l.c.n.n.n.n.b.c.c.",
"n.n.n.n.n.n.n.l.p.p.p.k.w._ J D o.o.K q   . #  .,...i 3 2 2 L 1.H.H.*.D H 8.u.l.n.n.n.n.n.n.c.k.k.p.",
"n.n.n.n.n.n.b.l.p.p.p.p._ a [ ;.#.F q +     . < F -.$.y 3 @ L 2.U.!.I.2.8 z e.l.n.n.n.n.n.n.c.p.p.p.",
"n.n.n.n.n.n.b.k.p.p.p.p.z + ..B.$.y .           < B.C.i 3 @ S M.E.(.).F.# s w.l.n.n.n.b.n.n.l.p.p.k.",
"n.n.n.b.k.k.l.k.p.p.p.p.z # ..N.#.y o           < V.4.S 3 + i 2.E.(.).F.# g a.x.n.n.n.l.k.l.k.p.p.p.",
"n.n.n.c.p.p.p.i.p.p.p.p._ a ] #.F 3 .           < B.V.F 3 + L 2.!.).).F.$ g s.x.n.n.v.k.p.p.p.p.p.p.",
"n.n.n.b.p.p.p.p.p.p.p.p.y.8.H 0 # o             < B.B.F 3 + K S.(.`._.G.$ j a.x.n.n.v.l.p.k.p.k.p.k.",
"b.b.b.k.p.p.p.p.p.p.k.l.l.k.9.U g s 6 6 6 ; ; X $  .#... . .=.5.G.G.G.>.h E z.b.n.n.n.v.l.l.l.l.l.l.",
"p.p.p.p.p.p.p.p.i.p.l.n.n.n.x.f.a.r.8.6.6.6.x ; O $ y ;.C.L.C.:.~ u u Q q.g.v.v.n.n.n.n.n.n.n.n.n.n.",
"p.p.p.p.p.p.p.p.i.h.l.n.n.n.n.x.x.j.y.y.y.e.7.z a a B  .#.*.#.[ Q W W ' z.v.n.n.n.n.n.n.n.n.n.n.n.n.",
"p.p.p.p.p.p.p.p.i.i.l.n.n.n.n.n.n.b.h.i.i.u.y.6.x x H V D S C C W E E a.v.n.n.n.n.n.n.n.n.n.n.n.n.n."
};
