/* XPM */
static char *result[] = {
/* columns rows colors chars-per-pixel */
"50 55 163 2 ",
"   c #020101",
".  c #090606",
"X  c #0B0907",
"o  c #070E0D",
"O  c #0E0B09",
"+  c #110D0B",
"@  c #0D110F",
"#  c #15120C",
"$  c #19150F",
"%  c #1C1A0F",
"&  c #071312",
"*  c #0C1511",
"=  c #0D1A16",
"-  c #0D1E1B",
";  c #101612",
":  c #1B1411",
">  c #121A14",
",  c #1E1B12",
"<  c #111D19",
"1  c #221C15",
"2  c #251D19",
"3  c #281F1A",
"4  c #0E221B",
"5  c #11251D",
"6  c #1D2318",
"7  c #102B1F",
"8  c #252315",
"9  c #282617",
"0  c #2B231B",
"q  c #25291D",
"w  c #2D2A1B",
"e  c #322E1D",
"r  c #33311E",
"t  c #112321",
"y  c #132B23",
"u  c #1A2E20",
"i  c #162E2A",
"p  c #143226",
"a  c #1F3022",
"s  c #16322C",
"d  c #1A362D",
"f  c #183B2B",
"g  c #1B3531",
"h  c #1A3C33",
"j  c #1E3E3A",
"k  c #2A2F20",
"l  c #342C21",
"z  c #243425",
"x  c #2A3022",
"c  c #253926",
"v  c #283827",
"b  c #22342A",
"n  c #253B2C",
"m  c #2C3C2B",
"M  c #353321",
"N  c #3A3324",
"B  c #373824",
"V  c #3D3A25",
"C  c #3E3528",
"Z  c #343B2B",
"A  c #3C3D29",
"S  c #263A31",
"D  c #403E26",
"F  c #433C2A",
"G  c #1A4333",
"H  c #1E4936",
"J  c #1F423B",
"K  c #1D4B3B",
"L  c #26412E",
"P  c #2F412E",
"I  c #33422C",
"U  c #3C432C",
"Y  c #214533",
"T  c #2D4333",
"R  c #274936",
"E  c #294937",
"W  c #22433C",
"Q  c #28443B",
"!  c #224C3D",
"~  c #294C3C",
"^  c #334433",
"/  c #3F4631",
"(  c #344A35",
")  c #394A33",
"_  c #314A39",
"`  c #21513E",
"'  c #29523E",
"]  c #434127",
"[  c #454229",
"{  c #4A442D",
"}  c #4C4A2D",
"|  c #524E2D",
" . c #4E4632",
".. c #444C33",
"X. c #4D4B31",
"o. c #504732",
"O. c #524C33",
"+. c #4B5035",
"@. c #475238",
"#. c #565334",
"$. c #5A5336",
"%. c #535837",
"&. c #555639",
"*. c #5C553A",
"=. c #535A3A",
"-. c #5D593B",
";. c #60573D",
":. c #625D3C",
">. c #685E3E",
",. c #65623F",
"<. c #6A623F",
"1. c #224641",
"2. c #244944",
"3. c #254D48",
"4. c #225542",
"5. c #245B46",
"6. c #295846",
"7. c #26534A",
"8. c #29544D",
"9. c #255C49",
"0. c #295E4B",
"q. c #2B5651",
"w. c #2D5B55",
"e. c #2F5E58",
"r. c #305F59",
"t. c #27614B",
"y. c #29634C",
"u. c #2B6553",
"i. c #2B6B54",
"p. c #2F6C5A",
"a. c #31635A",
"s. c #316B5D",
"d. c #2E7057",
"f. c #2E7359",
"g. c #32725E",
"h. c #327A5F",
"j. c #337560",
"k. c #347E63",
"l. c #655E40",
"z. c #666140",
"x. c #6B6642",
"c. c #6E6943",
"v. c #736C45",
"b. c #736C49",
"n. c #767045",
"m. c #7B7347",
"M. c #77724B",
"N. c #7C754B",
"B. c #7E794F",
"V. c #80774C",
"C. c #827B4D",
"Z. c #837C51",
"A. c #86814F",
"S. c #8B8354",
"D. c #8F8959",
"F. c #958B58",
"G. c #9A925D",
"H. c #A39B5F",
"J. c #9C9563",
"K. c #A49B62",
"L. c #A59E68",
"P. c #AAA164",
"I. c #C4BA74",
/* pixels */
"r.r.r.r.r.r.r.r.r.r.s.k.k.k.s.w.3.g = & & & & & & & & & p 5.i.k.k.k.k.k.k.k.k.s.a.e.a.e.r.r.s.k.k.k.",
"r.r.r.r.r.r.r.r.r.r.s.k.k.k.u.3.Q S x k k k x x k x x x L ' y.f.h.k.k.k.k.k.k.s.e.e.r.e.r.r.g.k.k.k.",
"r.r.r.a.r.a.r.r.a.r.s.k.k.h.9.W S / *.:.:.:.;.;.-.:.-.,.+.I ' 5.f.k.k.k.k.k.k.s.r.a.r.r.r.r.g.k.k.k.",
"r.r.r.a.s.g.s.g.g.s.h.k.g.y.6.Z ..@.:.z.l.l.>.l.z.z.z.z.-...) ~ t.d.h.k.k.k.k.k.s.s.s.a.r.r.s.s.s.j.",
"r.r.a.s.k.k.k.k.k.k.k.k.y.` ( ..&.l.l.;.;.;.l.l.*.l.l.l.:.:.+.Z ~ 5.h.k.k.k.k.k.k.k.j.a.r.r.r.r.r.r.",
"r.r.r.g.k.k.k.k.k.k.k.k.5.f ) &.M.M.>.o.C N l N N l F $.c.Z.z.@.L Y f.k.k.k.k.k.k.k.g.a.r.r.r.r.r.r.",
"s.s.a.g.k.k.k.k.g.k.g.k.` y U :.Z.Z.v.o.l 0 3 2 2 l F :.C.G.b.X.c G g.j.j.j.h.g.k.h.s.a.r.r.r.r.r.r.",
"k.j.k.k.k.k.k.s.a.a.a.a.J 5 A :.F.H.Z.v.F l 2 2 0 C *.C.F.K.n.} c G d.j.s.a.a.a.a.a.a.r.r.r.r.r.r.r.",
"k.k.k.k.k.k.k.s.e.r.r.r.J t k N ;.x.x.v.m.o.e l F l.v.v.x.>.{ e 7 H d.g.a.e.r.r.r.r.r.r.r.r.r.r.r.r.",
"k.k.k.k.k.k.j.s.r.r.r.r.j - o + : 0 F <.H.v.F { *.S.C.| l 1 # + 4 G d.g.a.e.r.r.r.r.r.r.r.r.r.r.r.r.",
"k.k.k.j.s.s.s.r.r.r.r.r.J 4 @ O # : 1 D >.V.F.F.Z.v.o.3 : # + + - d w.a.e.r.r.r.r.r.r.r.r.r.r.r.r.r.",
"k.k.k.g.r.r.r.r.r.r.r.r.S - @ O + X . : l x.H.H.S.o.2 X X + O O = s 8.r.r.r.r.r.r.r.r.r.r.r.r.r.r.r.",
"k.k.k.j.r.r.r.r.r.r.r.r.j - @ + + X . . O 8 e r 9 $ O   . + + O * s 8.r.r.r.r.r.r.r.r.r.r.r.r.r.r.r.",
"k.k.k.k.s.s.s.s.s.s.s.s.J 5 @ O + X                     . + O O > s u.s.s.s.s.s.s.s.s.r.r.r.r.r.r.r.",
"k.k.k.k.k.k.k.k.k.k.j.k.4.7 * O + X                     . + + O 4 G s.k.j.k.k.k.k.k.g.r.r.r.r.r.r.r.",
"k.k.k.k.k.k.k.k.k.k.k.k.4.y * O + O                     . + O O 4 G d.k.k.k.k.k.k.k.j.a.r.r.r.r.r.r.",
"k.k.k.k.k.k.k.k.k.k.k.k.4.p = O + X                     . + + @ 5 H d.k.k.k.k.k.k.k.k.s.a.a.r.a.a.a.",
"k.k.k.k.k.k.k.k.k.k.k.k.i.! p - O X .                   X X ; 5 G 5.h.h.k.k.k.k.k.k.k.h.j.j.j.j.j.j.",
"k.k.k.k.k.k.k.k.k.k.k.k.f.y.G 5 @ X + .             . X X O < s 6.i.h.k.k.k.k.k.k.k.k.k.k.k.k.k.k.k.",
"k.k.k.k.k.k.k.k.k.k.k.k.h.h.` p @ O : + .           O : + . 5 G i.h.k.k.k.k.k.k.k.k.k.k.k.k.k.k.k.k.",
"k.k.k.k.k.k.k.g.h.g.g.g.p.u.~ L k w e 3 + X     . + 1 e e w v E 8.p.s.s.g.g.g.j.h.g.s.j.g.g.k.k.k.k.",
"k.k.k.k.k.k.k.s.a.a.r.e.8.! _ ..#.*.$.D 2 + . . X : l O.$.$.+.) 2.3.w.a.r.r.r.r.r.r.r.r.r.r.j.k.k.k.",
"k.k.k.k.k.k.j.s.e.a.w.8.2.T +.,.N.V.v.$.l 2 : : 1 0 { x.m.C.c.=.( Q 3.q.r.r.r.r.r.r.r.r.r.r.s.k.k.k.",
"k.k.k.k.j.k.j.s.e.e.8.W T / -.n.C.C.v.>.o.C 3 3 l F $.v.N.A.m.<.X.) 1.3.w.r.r.r.r.r.r.r.r.r.g.k.k.k.",
"s.s.s.a.a.a.s.r.e.q.2.n @.x.x.>.F r r | b. .l l F l.-.V r r $.x.v.-.P Y 8.w.r.r.r.r.r.r.r.r.g.k.k.k.",
"r.e.r.r.a.e.r.r.q.S S ..,.b.:.{ 8 # # r $.*.l.*.*.*.[ % # # r ;.x.x.%.) g 3.r.r.r.r.r.r.r.r.g.k.k.k.",
"r.r.r.r.r.r.r.r.2.- A A.m.>.F 3 $ +   @ : l.J.J.Z.N #   . + 1 l $.v.S.-.; g a.r.r.r.r.r.r.r.g.k.k.k.",
"r.r.r.r.r.e.a.s.5.- B B.b.:.C 1 1 # X O # :.L.L.Z.l # X + 1 2 0 X.x.C.#.O g r.r.r.r.r.r.r.r.j.k.k.k.",
"r.r.r.r.r.r.a.j.t.4 x n.x.*.C 3 1 2 : 1 1 >.J.J.V.l + + 1 1 2 0  .l.b.X.O g r.r.r.r.r.r.r.r.s.k.k.k.",
"r.r.r.a.r.r.a.j.t.4 M v.B.V.;.F 0 3 l o.v.l.*.;.o.0 : : 1 2 F o.v.C.M.X.O d r.r.r.r.r.r.r.r.s.k.k.k.",
"a.s.a.a.a.s.s.j.u.p m l.b.N.l.$.F F $.V.P.V.o.$.o.F F F l F F l.b.N.x...5 J a.s.s.a.s.a.s.a.s.j.k.k.",
"j.k.k.j.j.k.j.k.d.5.E Z Z C  .*.b.N.S.K.I.P.F.F.S.V.b.b.b.b.l.o.] V I T ` u.j.j.k.j.j.k.k.j.g.a.s.a.",
"k.k.k.k.k.k.k.k.k.d.6.S b b Z X.-.c.n.A.G.S.A.C.m.<.<.<.z.,.%./ P n L ' i.f.k.k.k.k.k.k.k.k.g.e.r.r.",
"k.k.k.k.k.k.k.k.k.k.i.1.j g b m V V ] { | | | | | ] D ] V V I P H K 4.i.k.k.k.k.k.k.k.k.k.k.s.r.r.r.",
"k.k.k.k.k.k.k.k.k.k.h.i.u.0.Q b 6 % % 8 9 D | | ] 9 % , , , a H t.i.i.f.k.k.k.k.k.k.k.g.s.g.a.r.r.r.",
"k.k.k.k.k.k.k.k.k.k.k.k.k.h.5.p @ . . . . r -.-.| % X X X   4 G i.k.k.k.k.k.k.k.k.k.j.s.r.r.r.r.r.r.",
"k.k.k.k.k.k.k.k.k.k.k.k.k.h.4.p * X # + @ #.D.D.n.w # O O . 4 H i.k.k.k.k.k.k.k.k.k.j.a.r.r.r.r.r.r.",
"j.k.j.k.k.k.k.j.j.j.j.j.j.f.4.s @ O # # # -.L.L.A.r # # O . 7 G y.h.j.j.j.j.j.k.k.k.j.s.a.s.a.s.s.s.",
"a.a.a.s.k.k.k.s.a.a.a.a.a.u.K s @ O # # # :.L.L.A.r # $ + . 4 G 9.a.a.a.a.a.a.j.k.k.k.k.k.k.k.k.k.k.",
"e.r.e.s.k.k.k.s.e.e.e.e.w.q.J p @ + # % % -.G.G.B.B % $ + X 5 h 7.w.e.e.e.e.e.j.k.k.k.k.k.k.k.k.k.k.",
"a.e.e.g.k.k.k.s.a.r.a.r.w.3.h y @ O $ 8 w -.Z.Z.c.] 9 % + X - f 1.q.e.r.r.r.r.j.k.k.k.k.k.k.k.k.k.k.",
"j.j.j.k.k.k.k.j.j.j.j.j.7.h t * O # 8 V ,.} r w V &.#.w $ O @ < y j q.r.r.r.r.a.s.s.g.k.k.k.k.k.k.k.",
"k.k.k.k.k.k.k.k.k.k.k.k.4.7 * O O % 8 #.S.A     , c.<.r , + O O = i q.r.r.r.r.r.r.r.s.k.k.k.k.k.k.k.",
"k.k.k.k.k.k.k.k.k.k.k.k.4.y * O O $ 8 } S.A     , c.<.r , + O O < i q.r.r.r.r.r.r.r.a.k.k.k.k.k.k.k.",
"k.k.k.k.k.k.k.j.g.j.g.j.` 4 * O + $ 8 #.S.A     , c.x.x , + + O = i q.r.r.r.r.a.s.s.g.k.k.k.k.j.g.g.",
"k.k.k.k.k.k.k.a.e.r.e.e.J - @ O O $ 8 O.S.V     , c.x.r % + O O = i q.r.r.r.r.j.k.k.k.k.k.k.g.r.r.r.",
"k.k.k.k.k.k.j.s.r.r.8.W i = # O , e ] } X.8     # V } { N 1 # O * t S 3.r.r.a.j.k.k.k.k.k.k.s.r.r.r.",
"k.k.k.k.k.k.j.s.r.r.2.y < # O # 9 D -.[ , O     . $ r -.| e $ X + ; t j r.a.a.j.k.k.k.j.k.k.s.r.r.a.",
"k.k.k.j.a.s.a.a.r.r.1.- & + O # w  .<.[ O           w ,.$.B 1 O + @ = h p.j.j.k.k.k.k.s.s.s.a.r.r.r.",
"k.k.k.g.r.r.r.e.e.e.1.= @ + O : w F -.B             8 -.| r 1 + + @ & h h.k.k.k.k.k.g.a.r.r.r.a.r.r.",
"k.k.k.g.r.r.r.r.a.e.j = @ + # : 3 e V 8             # B M 9 1 $ # + & h h.k.k.k.k.k.g.a.r.a.r.a.r.a.",
"j.j.j.a.r.r.r.r.e.e.2.y < @ # # $ $ 1 $ o o o o o o * : , : # + + > t 1.h.k.k.k.k.k.k.k.s.s.s.s.s.s.",
"r.r.r.r.r.r.r.r.e.r.8.K p > ; O o . . & 4 t t t t t - o . . O @ > 5 G t.h.k.k.k.k.k.k.k.k.k.k.k.k.k.",
"r.r.r.r.r.r.r.r.e.e.u.i.~ p 5 * & & - i 2.2.2.1.1.2.g t * o o * y G 9.f.k.k.k.k.k.k.k.k.k.k.k.k.k.k.",
"r.r.r.r.r.r.r.r.e.a.s.k.t.G y - - 4 t J e.a.e.e.a.e.3.i - & o = p 4.h.k.k.k.k.k.k.k.k.k.k.k.k.k.k.k."
};
