/* XPM */
static char *result[] = {
/* columns rows colors chars-per-pixel */
"50 55 182 2 ",
"   c #020202",
".  c #080605",
"X  c #040806",
"o  c #0B0906",
"O  c #060C0A",
"+  c #0C0C09",
"@  c #120E0B",
"#  c #07100C",
"$  c #0B110C",
"%  c #15120D",
"&  c #18140F",
"*  c #1E1D0F",
"=  c #0A1513",
"-  c #0C1A16",
";  c #0D1F18",
":  c #151410",
">  c #1C1512",
",  c #141C13",
"<  c #1D1B13",
"1  c #131C18",
"2  c #221A16",
"3  c #251C19",
"4  c #281F1B",
"5  c #0E2119",
"6  c #14241D",
"7  c #1F2418",
"8  c #162A1E",
"9  c #1C281F",
"0  c #252317",
"q  c #222419",
"w  c #2B241C",
"e  c #2D2B1B",
"r  c #252C1B",
"t  c #312C1E",
"y  c #32301D",
"u  c #142623",
"i  c #152B24",
"p  c #1D2D23",
"a  c #162D2A",
"s  c #153227",
"d  c #183022",
"f  c #15332C",
"g  c #1A342B",
"h  c #173C2E",
"j  c #193B2D",
"k  c #1A3632",
"l  c #153F31",
"z  c #1B3B34",
"x  c #1E3C38",
"c  c #212C22",
"v  c #342B21",
"b  c #233426",
"n  c #243827",
"m  c #213429",
"M  c #29372C",
"N  c #2C3A29",
"B  c #353322",
"V  c #3A3325",
"C  c #3B3A26",
"Z  c #3E3628",
"A  c #323B2A",
"S  c #3D3B28",
"D  c #2A3C32",
"F  c #203D38",
"G  c #253C33",
"H  c #413D27",
"J  c #443C2B",
"K  c #1B4535",
"L  c #1B4837",
"P  c #1E423C",
"I  c #1F4B3A",
"U  c #2D442F",
"Y  c #3D432D",
"T  c #204130",
"R  c #294632",
"E  c #274937",
"W  c #284937",
"Q  c #24433D",
"!  c #2E4539",
"~  c #224B3E",
"^  c #2C4B38",
"/  c #324632",
"(  c #354B35",
")  c #3E4C35",
"_  c #23523D",
"`  c #355139",
"'  c #464327",
"]  c #45432B",
"[  c #4A442D",
"{  c #4C492F",
"}  c #514E2F",
"|  c #4C4630",
" . c #454A32",
".. c #4C4A31",
"X. c #504732",
"o. c #524C33",
"O. c #584F36",
"+. c #574F38",
"@. c #4D5338",
"#. c #495A3D",
"$. c #565334",
"%. c #5A5637",
"&. c #5D5836",
"*. c #505638",
"=. c #5C5639",
"-. c #545C3C",
";. c #5E5A3B",
":. c #60573B",
">. c #635C3C",
",. c #63603D",
"<. c #69623E",
"1. c #1F5641",
"2. c #234642",
"3. c #244944",
"4. c #244E48",
"5. c #2B4D45",
"6. c #245343",
"7. c #2E5347",
"8. c #235B46",
"9. c #2A5943",
"0. c #27504B",
"q. c #2B534B",
"w. c #255C49",
"e. c #295E4F",
"r. c #2B5751",
"t. c #2E5B55",
"y. c #2F5E58",
"u. c #305F59",
"i. c #25614B",
"p. c #2A644E",
"a. c #2F684F",
"s. c #31684F",
"d. c #2D6255",
"f. c #2C6C55",
"g. c #2F6158",
"h. c #2F6D59",
"j. c #31635A",
"k. c #316B5D",
"l. c #316C52",
"z. c #2E7157",
"x. c #2E7259",
"c. c #32725E",
"v. c #31795E",
"b. c #337560",
"n. c #347E63",
"m. c #525B40",
"M. c #665E41",
"N. c #5A6241",
"B. c #656341",
"V. c #6C6543",
"C. c #646945",
"Z. c #6D6944",
"A. c #746C45",
"S. c #746E49",
"D. c #797247",
"F. c #75754D",
"G. c #7C754C",
"H. c #7D794C",
"J. c #7F7F50",
"K. c #81774D",
"L. c #847D4D",
"P. c #857D52",
"I. c #878154",
"U. c #8B8453",
"Y. c #8E865A",
"T. c #8F895A",
"R. c #908655",
"E. c #938B57",
"W. c #958D5C",
"Q. c #97905D",
"!. c #9B945B",
"~. c #9B9462",
"^. c #9F9860",
"/. c #A39B63",
"(. c #A59E68",
"). c #ABA365",
"_. c #AFA867",
"`. c #B3AA69",
"'. c #B8AF6C",
"]. c #BCB36F",
"[. c #BFB672",
"{. c #C6BC74",
/* pixels */
"u.u.u.u.u.u.u.u.u.u.k.n.n.n.k.u.u.2.- X                   X ~ n.n.n.n.n.n.n.n.k.u.u.u.u.u.u.c.n.n.n.",
"u.u.u.u.u.u.u.u.u.u.k.n.n.n.k.t.r.! c q 0 0 0 0 0 0 0 q 0 q E p.z.v.n.n.n.n.n.k.u.u.u.u.u.u.k.n.n.n.",
"u.u.u.j.u.u.u.u.j.u.k.n.n.n.j.t.2.2. .*.=.=.=.:.&.=.&.&.%.%./ K 8.f.v.n.n.n.n.c.u.j.u.u.u.u.c.n.n.n.",
"u.u.u.j.c.c.k.c.k.c.b.n.n.n.6.G ! ) ..X.| | { J | | | | { { @.#.` 9.x.n.n.n.n.b.k.k.k.j.u.j.j.k.b.k.",
"u.u.j.k.n.n.n.n.n.n.n.n.n.v.j 5 J +.o.| J J J V V v v v v V M.S.' R l.n.n.n.n.n.n.n.b.j.u.u.u.u.u.u.",
"u.u.u.k.n.n.n.n.n.n.n.n.n.v.s : { <.A.Z.M.:.=.J v 4 v v w w X.>.C n s.v.n.n.n.n.n.n.c.j.u.u.u.u.u.j.",
"j.k.j.b.n.n.n.n.v.b.v.v.v.c.a & { D.E.E.R.U.K.J 3 4 3 2 3 3 J | w r s.v.b.b.v.b.b.n.k.j.u.u.u.u.u.u.",
"b.n.n.n.n.n.n.k.j.j.j.j.j.t.u & } L.`.].'.'./.:.v v v 3 3 2 v v & 6 p.c.j.j.j.j.j.j.j.u.u.u.u.u.u.u.",
"n.n.n.n.n.n.n.k.u.u.u.u.u.t.u + t O.A.K.K.K.D.<.m.:.O.J J J X.X.e c p.k.g.g.u.u.u.u.u.u.u.u.u.u.u.u.",
"n.n.n.n.n.n.b.k.u.u.u.u.u.t.u   o % 2 3 2 4 v <.R.W.L.<.>.<.K.K.' N s.k.y.j.u.u.u.u.u.u.u.u.u.u.u.u.",
"n.n.n.n.k.k.j.j.u.u.u.u.u.t.u   o & 2 3 3 3 4 v J X.A.!././.<.[ 0 p 7.j.u.u.u.u.u.u.u.u.u.u.u.u.u.u.",
"n.n.n.c.u.u.j.u.u.u.u.u.u.t.u X o % 2 3 3 3 2 @ o > X.!.)./.&.2 + 1 3.t.u.u.u.u.u.u.u.u.u.u.u.u.u.u.",
"n.n.n.b.u.u.u.u.u.u.u.u.u.t.u   o @ 3 3 3 2 2 o   . % w e t & .   - 3.t.u.u.u.u.u.y.u.u.u.u.u.u.u.u.",
"n.n.n.n.k.j.k.k.k.k.k.k.k.g.i . o > 2 3 3 3 > o                   - 4.j.k.k.k.k.k.k.k.u.u.u.u.u.u.u.",
"n.n.n.n.n.n.n.n.b.n.n.n.b.b.s X o > 2 3 3 2 > o                   ; p.b.b.n.n.n.n.n.b.u.u.u.u.u.u.u.",
"n.n.n.n.n.n.n.n.n.n.n.n.n.b.f X o @ 2 3 3 2 2 o                   ; p.b.n.n.n.n.n.n.b.j.u.u.u.u.u.u.",
"n.n.n.n.n.n.n.n.n.n.n.n.n.v.j $ @ : 2 3 3 2 2 @                 X 6 p.n.n.n.n.n.n.n.n.h.j.j.j.u.u.u.",
"n.n.n.n.n.n.n.n.n.n.n.n.n.n.8.j 9 > > 2 3 3 2 @ .             X ; l f.n.n.n.n.n.n.n.b.b.b.b.b.b.b.b.",
"n.n.n.n.n.n.n.n.n.n.n.n.n.n.z.i.j u > 3 3 2 2 & @ o .         X i 1.x.n.n.n.n.n.n.n.n.n.n.n.n.n.n.n.",
"n.n.n.n.n.n.n.n.n.n.n.n.n.n.b.f.K i < > 3 3 3 2 2 2 @         O h 8.v.n.n.n.n.n.n.n.n.n.n.n.n.n.n.n.",
"n.n.n.n.n.n.n.b.b.c.c.c.b.k.n.z.K m C [ o.o.X.v 3 3 > o X o   + f w.k.b.c.c.c.b.b.b.b.c.c.c.b.n.n.n.",
"n.n.n.n.n.n.n.k.j.j.u.u.u.u.b.h.L / V.L.E.R.L.J 3 3 2 % @ @ + O a 2.r.u.u.u.u.u.g.y.u.u.u.u.c.n.n.n.",
"n.n.n.n.n.n.b.k.u.u.u.u.u.y.I T ) *.;.>.:.>.>.D.K.K.G.D.D.D.A.;. .! r.t.u.u.u.u.y.u.u.u.u.u.c.n.n.n.",
"n.n.n.n.n.b.b.j.u.u.u.u.t.r.g r %.,.$.J v V J U.`._.`.`.'.]._.!.>.) q.t.t.y.u.u.u.u.u.u.u.u.c.n.n.n.",
"k.k.j.k.j.j.j.j.u.u.y.u.7.Q ) $.<.>.J t 2 2 w =.H.H.U.U.!.`.!.I.<.-.^ ~ 4.q.u.u.u.u.u.u.u.u.k.n.n.n.",
"u.y.u.u.j.u.y.j.u.u.t.t.2.g N.L.D.:.V 3 & @ @ t ' ' ' $.<.).<.<.D.,.N j K 0.u.u.u.u.u.u.u.u.b.n.n.n.",
"u.u.u.u.u.u.u.u.y.u.y.r.x 6 H.).L.:.t 2 @ o . . . o @ * } I.>.' G.A.3 - f 3.y.y.u.u.u.u.u.u.b.n.n.n.",
"u.u.u.u.u.u.j.k.c.c.k.j.K 6 F./.L.:.v 2 > & @ .     & y $.G.:.} G.Z.2 - f 3.y.y.u.u.u.u.u.u.k.n.n.n.",
"u.u.u.u.u.u.j.b.n.n.n.v.~ 8 C.W.P.M.V 4 3 3 2 @ o o 0 } >.V.M.V.P.V.< - a 3.u.u.u.u.u.u.u.u.c.n.n.n.",
"u.u.u.g.u.u.j.b.n.n.n.v.~ i C.~.Q.K.J v 3 3 3 2 > 2 J U.D.$.A.Y.~.D.< - k 4.u.u.u.u.u.u.u.u.k.n.n.n.",
"j.k.k.j.k.j.j.b.n.n.v.c._ g m.F.G.Z.X.J V V V V V V >.^.L.O.V.K.G.N.b a K 0.j.j.k.k.k.k.j.k.k.b.n.n.",
"b.b.n.b.b.n.b.n.n.n.v.j.t.q.G c q v O.>.V.M.V.V.V.V.G.Q.U.S.J < 7 m 9.f.x.b.n.b.b.b.b.b.n.n.k.j.j.k.",
"n.n.n.n.n.n.n.n.n.n.c.y.y.y.P a - 1 B J { { | ..| { o.&.$.{ 0 X ; K f.v.n.n.n.n.n.n.n.n.n.n.c.u.u.u.",
"n.n.n.n.n.n.n.n.n.n.b.k.u.u.t.3.a - o o o X o . o X o o + + . O s 1.x.n.n.n.n.n.n.n.n.n.n.n.c.u.u.u.",
"n.n.n.n.n.n.n.n.n.n.n.n.c.c.k.t.z m ....J e > @ o . 0 &.>.>.c O h i.v.n.n.n.n.n.n.n.n.b.c.k.j.u.u.u.",
"n.n.n.n.n.n.n.n.n.n.n.n.n.n.n.x.P ` F.G.Z.J 3 > @ X C Q.(./.{ # h i.v.n.n.n.n.n.n.n.b.j.u.u.u.u.u.u.",
"n.n.n.n.n.n.n.n.n.n.n.n.n.n.n.x.K ( F.G.S.J 2 > +   C W.(./.[ O K i.v.n.n.n.n.n.n.n.b.u.u.u.u.u.u.u.",
"b.n.b.b.n.n.n.b.b.b.b.b.b.b.v.x.K ( F.G.V.J 2 > @ o B W.(.~. .# h 1.k.v.b.v.b.n.n.n.b.k.j.k.k.j.k.k.",
"j.j.g.c.n.n.b.k.u.j.j.j.g.j.c.h.K ( F.G.V.J 2 > @ o V W./.~. .O i 3.t.j.u.j.j.b.n.n.n.n.n.n.n.n.n.n.",
"j.j.u.c.n.n.n.k.u.y.u.u.u.y.w.1.! ) M.M.+.J 2 2 2 e ' B.V.V...B M Q e.t.u.u.u.b.n.n.n.n.n.n.n.n.n.n.",
"u.u.g.c.n.n.n.k.j.u.u.j.u.y.z d Y  .+.| Z v 3 0 y %.$.y y y @.,.J D q.t.u.u.u.c.n.n.n.n.n.n.n.n.n.n.",
"b.b.b.n.n.n.n.b.b.b.b.b.b.k.g 5 Y o.[ Z v 2 3 0 H F.,.< $ % $.G.| A q.t.u.u.u.k.k.k.c.n.n.n.n.n.n.n.",
"n.n.n.n.n.n.n.n.n.n.n.n.n.v.s & ] o.J v 2 3 2 e ' P.B.%     =.Y...N q.t.u.u.u.u.u.u.k.b.n.n.n.n.n.n.",
"n.n.n.n.n.n.n.n.n.n.n.n.n.v.s % J o.J v 2 2 2 w [ P.<.+     =.U.o.N q.y.u.u.u.u.u.u.k.n.n.n.n.n.n.n.",
"n.n.n.n.n.n.n.b.c.c.c.c.x.f.g < | $.J v 2 2 2 e [ H.>.$     $.P...A 5.r.t.u.u.j.k.k.k.n.n.n.n.b.b.b.",
"n.n.n.n.n.n.n.k.u.u.j.y.t.0.g e %.&.J v 2 2 > t [ S.$.o     { F.o.A Q 0.r.y.u.c.n.n.n.n.n.n.c.u.u.u.",
"n.n.n.n.n.n.n.k.u.u.y.t.Q g -.I.U.G.[ w & @ % H o.' e .     q S }  .c g x 0.u.b.n.n.n.n.n.n.k.u.u.u.",
"n.n.n.n.n.b.b.j.u.u.y.r.z 6 J.{.{.W.X.w @ o % { $.<         . % o.$.> - k 4.k.b.n.n.n.n.n.n.k.u.u.u.",
"n.n.n.b.j.j.k.j.u.u.y.r.k 7 J.{.[.Q.X.w @ o @ { %.> .         % { o.& ; l w.v.n.n.n.n.k.j.k.j.u.u.u.",
"n.n.n.c.u.u.u.y.u.u.y.t.x u F.'.`.E.+.v > & * [ ..* . X X X . = C Y p g 1.f.n.n.n.n.b.j.u.u.u.u.u.u.",
"n.n.n.b.u.u.u.u.u.u.t.t.P g C.E.E.I.&.{ C y e ' Y % . = # = = = 1 a 2.t.x.n.n.n.n.n.b.j.u.u.u.u.u.u.",
"b.b.b.j.u.u.u.u.u.y.j.k.t._ ) { } &.<.Z.V.,.%.C 2 o = a k k k k K ~ d.v.n.n.n.n.n.n.n.n.c.k.c.k.k.c.",
"u.u.u.u.u.u.u.u.u.u.k.n.v.c.j $ O e Z.I.W.T.H.B . X u 4.t.r.r.t.x.v.n.n.n.n.n.n.n.n.n.n.n.n.n.n.n.n.",
"u.u.u.u.u.u.u.u.u.u.k.n.n.v.p.6.6.E A B V V B G F x 2.t.y.y.t.g.v.n.n.n.n.n.n.n.n.n.n.n.n.n.n.n.n.n.",
"u.u.u.u.u.u.u.u.g.g.k.n.n.n.n.n.n.w.- X     O Q j.y.y.y.y.g.u.j.b.n.n.n.n.n.n.n.n.n.n.n.n.n.n.n.n.n."
};
