/* XPM */
static char *result[] = {
/* columns rows colors chars-per-pixel */
"50 55 146 2 ",
"   c #010101",
".  c #090706",
"X  c #0B0907",
"o  c #060C0A",
"O  c #0C0A09",
"+  c #110D0B",
"@  c #07120E",
"#  c #0B120F",
"$  c #14120D",
"%  c #19160F",
"&  c #19180F",
"*  c #0C1310",
"=  c #0C1917",
"-  c #0E1D1A",
";  c #141512",
":  c #1B1512",
">  c #121D17",
",  c #1C1A12",
"<  c #131D19",
"1  c #201915",
"2  c #251C19",
"3  c #281F1B",
"4  c #0E221A",
"5  c #10231F",
"6  c #242316",
"7  c #25251C",
"8  c #2A231B",
"9  c #2D2A1C",
"0  c #302E1E",
"q  c #32301F",
"w  c #122422",
"e  c #1B2724",
"r  c #122B23",
"t  c #182A26",
"y  c #192D2A",
"u  c #143026",
"i  c #183227",
"p  c #153429",
"a  c #19352D",
"s  c #17382C",
"d  c #1B3D2F",
"f  c #1C3734",
"g  c #1D3D35",
"h  c #1F3D39",
"j  c #212F27",
"k  c #332722",
"l  c #342E22",
"z  c #392C26",
"x  c #3B2E28",
"c  c #22352E",
"v  c #233B2C",
"b  c #343221",
"n  c #383623",
"m  c #3E3C25",
"M  c #3F3C28",
"N  c #403D25",
"B  c #45352E",
"V  c #423B29",
"C  c #483F2D",
"Z  c #4B3B31",
"A  c #1A4032",
"S  c #1F463B",
"D  c #1F4939",
"F  c #244232",
"G  c #284431",
"H  c #22433E",
"J  c #204A3C",
"K  c #2F4E39",
"L  c #334234",
"P  c #21503E",
"I  c #46432C",
"U  c #49452D",
"Y  c #4F4B2E",
"T  c #444732",
"R  c #4B4331",
"E  c #454A34",
"W  c #4C4A30",
"Q  c #524E32",
"!  c #4E5338",
"~  c #565335",
"^  c #5A5534",
"/  c #535339",
"(  c #5B543A",
")  c #505A3B",
"_  c #5F5A3C",
"`  c #62553D",
"'  c #615C3C",
"]  c #5D613E",
"[  c #6A643E",
"{  c #234540",
"}  c #244D43",
"|  c #274E49",
" . c #235542",
".. c #245945",
"X. c #29524C",
"o. c #265D49",
"O. c #2C5751",
"+. c #2D5A54",
"@. c #305F59",
"#. c #29614E",
"$. c #2C6653",
"%. c #2B6851",
"&. c #31635A",
"*. c #316B5D",
"=. c #2F745A",
"-. c #32725E",
";. c #31785E",
":. c #337560",
">. c #347E63",
",. c #675A43",
"<. c #6A5D43",
"1. c #666241",
"2. c #6B6344",
"3. c #6D6945",
"4. c #736646",
"5. c #726C45",
"6. c #756E4A",
"7. c #7C754C",
"8. c #7E794C",
"9. c #80764D",
"0. c #837C4D",
"q. c #837650",
"w. c #857A51",
"e. c #878255",
"r. c #8B8353",
"t. c #8E885A",
"y. c #918A56",
"u. c #948759",
"i. c #948D5D",
"p. c #9B8F5D",
"a. c #9D955B",
"s. c #A0975D",
"d. c #9C9562",
"f. c #9F9864",
"g. c #A29B66",
"h. c #A59E68",
"j. c #ABA265",
"k. c #ACA46A",
"l. c #B3AB6B",
"z. c #BCB471",
"x. c #C6BD75",
"c. c #C8BE76",
"v. c #CBC276",
"b. c #CEC479",
"n. c #D1C77A",
"m. c #D5CB7C",
/* pixels */
"@.@.@.@.@.@.@.@.@.@.*.>.>.>.*.@.@.@.@.f                       @ ..>.>.>.>.>.>.*.@.@.@.@.@.@.*.>.>.>.",
"@.@.@.@.@.@.@.@.@.@.*.>.>.>.*.@.@.X.h j : $ : : : : : % : % : , g o.;.>.>.>.>.*.@.@.@.@.@.@.*.>.>.>.",
"@.@.@.&.@.@.@.@.@.@.*.>.>.>.*.@.@.{ * , B B B B B x B B B B B z : 4 %.>.>.>.>.*.@.@.@.@.@.@.-.>.>.>.",
"@.@.@.&.-.-.*.-.-.-.:.>.>.>.-.&.h e 3 k B B B B B B B B B B B x 9 7 a  .;.>.>.>.-.*.*.@.@.@.*.*.:.*.",
"@.@.&.*.>.>.>.>.>.>.>.>.>.>.>.$.4 + x B B B B Z B B B B B B B B B k + u ;.>.>.>.>.>.:.&.@.@.@.@.@.@.",
"@.@.@.*.>.>.>.>.>.>.>.>.>.>.>.$.- ; x B B B B B B B B B B B B B B k X u ;.>.>.>.>.>.:.&.@.@.@.@.@.&.",
"*.&.&.-.>.>.>.>.:.:.:.;.;.:.:.$.- $ x B B B B B B B B B B B B B B k X t *.;.;.:.;.:.*.&.@.@.@.@.@.@.",
">.>.>.>.>.>.>.*.&.&.&.&.&.&.&.| = $ x B B B B B B B B B B B B B B k X w @.&.&.&.&.&.&.&.@.@.@.@.@.@.",
">.>.>.>.>.>.>.*.&.@.@.@.@.@.@.| ; 6 4.w.w.` B B B B B B B Z ,.w.0.` % 5 +.&.@.@.@.@.@.@.@.@.@.@.@.@.",
">.>.>.>.>.>.:.&.@.@.@.@.@.@.@.| = N l.b.n.w.Z B B B B B Z Z u.n.v.p.6 w +.@.@.@.@.@.@.@.@.@.@.@.@.@.",
">.>.>.:.*.*.*.&.@.@.@.@.@.@.@.| = & U Q Q 7.u.` B B B B <.p.4.~ Q m O w O.@.@.@.@.@.@.@.@.@.@.@.@.@.",
">.>.>.-.@.@.@.@.@.@.@.@.@.@.@.| =   .     [ z.4.Z B B B 9.x.~   .     w +.@.@.@.@.@.@.@.@.@.@.@.@.@.",
">.>.>.:.@.@.@.@.@.@.@.@.@.@.@.| = . % +   ' h.,.B B B B 6.k.Y   $ % . w +.@.@.@.@.@.@.@.@.@.@.@.@.@.",
">.>.>.>.*.*.*.&.*.*.*.&.*.*.&.| = X 1 : O V 2.<.,.,.,.,.<.2.l + : :   t &.*.&.*.*.*.&.@.@.@.@.@.@.@.",
">.>.>.>.>.>.>.>.>.>.>.>.>.:.*.| = . 1 2 1 $ : 3.g.d.f.f.( O : 2 2 : . u ;.>.>.>.>.>.:.&.@.@.@.@.@.@.",
">.>.>.>.>.>.>.>.>.>.>.>.>.>.*.| = . 1 2 2 : : n Q W Q Q b + : 2 3 :   r ;.>.>.>.>.>.:.&.@.@.@.@.@.@.",
">.>.>.>.>.>.>.>.>.>.>.>.>.>.*.X.w O , 2 2 2 1 O         + 2 2 2 1 : # s ;.>.>.>.>.>.>.*.&.&.&.@.&.&.",
">.>.>.>.>.>.>.>.>.>.>.>.>.>.>.-.o.g ; $ 2 2 2 1 : 1 : : 2 2 2 2 + > J #.>.>.>.>.>.>.>.;.:.:.:.:.:.-.",
">.>.>.>.>.>.>.>.>.>.>.>.>.>.>.>.>...@ 2 Q x 2 2 2 2 2 2 2 2 V V % 4 %.>.>.>.>.>.>.>.>.>.>.>.>.>.>.>.",
">.>.>.>.>.>.>.>.>.>.>.>.>.>.>.>.>...@ Y l.[ 2 2 2 2 2 2 2 2 7.s.n 4 %.>.>.>.>.>.>.>.>.>.>.>.>.>.>.>.",
">.>.>.>.>.>.>.:.;.-.-.-.:.*.>.=...p o ^ n.4.2 2 2 3 2 2 2 3 w.x.m @ d ..-.-.-.:.-.-.-.-.-.:.>.>.>.>.",
">.>.>.>.>.>.>.*.&.@.@.@.@.&.-.$.4     ^ b.6.2 2 2 2 2 2 2 8 0.l.M     w O.@.@.@.@.@.@.@.@.@.:.>.>.>.",
">.>.>.>.>.>.>.*.@.@.@.@.@.+.S v ! I O 9 [ 9.0.V 2 2 2 2 Q r.9.` , , W E t { @.@.@.@.@.@.@.@.*.>.>.>.",
">.>.>.>.:.:.:.&.@.@.@.@.O.| j 9 3._ $ O 2 9.x.4.V V V V q.c.[ : O 6 6._ 1 c X.+.@.@.@.@.@.@.*.>.>.>.",
"*.&.&.*.&.&.&.&.@.@.@.@.h > ! 3.M , . + 2 4.k.k.j.j.j.j.j.k.` 1 . X 6 U 6.E - { @.@.@.@.@.@.:.>.>.>.",
"@.&.@.@.&.@.@.&.@.@.@.@.y X 1.e.9     + 2 1.k.x.m.m.m.m.x.s.` 1 .     M d.Q   h @.@.@.@.@.@.-.>.>.>.",
"@.@.@.@.@.@.@.@.&.@.@.@.y X [ e.7     O 2 1.k.x.m.m.m.m.x.g.` : X     N d./   h @.@.@.@.@.@.*.>.>.>.",
"@.@.@.@.@.@.@.*.*.-.*.-.f o 1.e.9     + 2 2.f.8.[ [ [ [ 9.g.^ 1 .     m d.Q   h @.@.@.@.@.@.:.>.>.>.",
"@.@.@.@.@.@.&.:.>.>.>.>.A X 1.e.b X   O 2 <.i.n         Y g.( 1 X   + I d.Q . f @.@.@.@.@.@.-.>.>.>.",
"@.@.@.&.@.@.&.:.>.>.>.>.g O 1.d.7.W $ + 2 2.i.n         U g.( 1 O & ^ e.g./   h @.@.@.@.@.&.*.>.>.>.",
"&.*.&.&.&.&.*.:.>.>.>.>.D > / 8.7.^ # + 2 1.i.n         R g.( 1 . 1 1.7.7.E 5 K *.&.&.*.&.&.*.>.>.>.",
":.>.:.>.>.:.>.>.>.>.:.&.+.} j , , $   + 2 2.i.n         Y g.( 1 X o ; , , F %.-.>.:.:.>.:.>.-.&.&.&.",
">.>.>.>.>.>.>.>.>.>.-.&.@.+.h r r - . + 2 2.i.n         W g.( 1 . o r p s ..>.>.>.>.>.>.>.>.-.&.@.@.",
">.>.>.>.>.>.>.>.>.>.:.&.@.@.@.@.+.H o O 2 <.i.n         W g.( 1 . > $.>.>.>.>.>.>.>.>.>.>.>.*.@.@.@.",
">.>.>.>.>.>.>.>.>.>.>.;.-.-.-.-.-.} @ + 2 2.i.n         W g.( 1 X 4 $.>.>.>.>.>.>.>.>.-.*.*.&.&.@.@.",
">.>.>.>.>.>.>.>.>.>.>.>.>.>.>.>.>...@ + 2 2.i.n         R g.( , X 4 %.>.>.>.>.>.>.>.:.&.&.@.@.@.@.@.",
">.>.>.>.>.>.>.>.>.>.>.>.>.>.>.>.>...@ + 2 2.i.n         U g.( 1 . 4 %.>.>.>.>.>.>.>.-.&.@.@.@.@.&.@.",
":.>.:.:.>.>.>.:.:.:.:.:.:.:.>.>.>...@ O 2 2.i.n         W g.( 1 X - +.:.:.;.-.>.>.>.>.*.&.*.*.*.&.*.",
"&.&.&.-.>.>.>.*.&.&.@.&.&.&.:.>.>...@ O 2 1.i.n         W g.( 1 . - X.&.&.&.&.-.>.>.>.>.:.>.>.>.>.>.",
"@.@.@.*.>.>.>.*.@.@.@.@.@.&.-.-. .p ; l ,.( Y ,         7 ~ ( ( 8 ; r H @.@.&.-.>.>.>.>.>.>.>.>.>.>.",
"&.&.@.-.>.>.>.&.@.@.&.@.&.@.:.$.4 O 1 ( g.R   . X . X X o   _ i.R : . w +.@.&.:.>.>.>.>.>.>.>.>.>.>.",
"-.:.-.>.>.>.>.>.:.:.:.:.:.:.>.$.- O 1 ( g.W O I 3.3.3.2.n   _ i.R :   w +.@.@.&.*.*.*.>.>.>.>.>.>.>.",
">.>.>.>.>.>.>.>.>.>.>.>.>.>.>.%.- O 1 ( g.R $ 3.g.j.h.h.(   ' i.R :   w +.@.@.@.@.@.&.:.>.>.>.>.>.>.",
">.>.>.>.>.>.>.>.>.>.>.>.>.>.>.%.- . 1 ( g.W # 3.j.g.h.h._   _ i.R : . w +.@.@.&.@.@.*.>.>.>.>.>.>.>.",
">.>.>.>.>.>.>.:.-.:.-.:.-.-.>.%.4 O , ( g.W $ 3.f.k.f.h.~   ' i.R : . w +.@.@.&.*.*.-.>.>.>.>.:.-.-.",
">.>.>.>.>.>.>.&.@.@.@.&.&.&.-.%.- O 1 ( g.W O 3.j.f.h.h._   _ i.R :   w +.@.@.-.>.>.>.>.>.>.*.&.@.&.",
">.>.>.>.>.>.>.&.@.@.@.@.@.+.S F ] 6.3._ W 6 # 3.h.h.h.h.^   9 Y ' 4.6.~ y { @.:.>.>.>.>.>.>.-.&.@.@.",
">.>.>.>.>.>.:.&.@.@.@.@.@.+.w 6 a.x.k._   O 7 1.t.t.t.t.~ $ X ; 6.l.b.0.+ y *.:.>.>.>.:.>.>.*.@.@.&.",
">.>.>.:.&.&.*.&.@.@.@.@.@.+.w 6 a.v.k._   M 3.U 9 9 9 9 Q 6.b ; 6.l.v.r.X s ;.>.>.>.;.*.*.&.&.@.@.@.",
">.>.>.-.&.@.@.@.@.@.@.@.@.+.w 6 a.v.z.8.b 6.d.n         W g._ I t.z.v.e.X A >.>.>.>.>.&.@.&.@.@.@.@.",
">.>.>.-.@.@.@.@.@.@.@.@.@.+.5 6 a.m.b.l.t.d.t.n         W h.d.a.z.n.m.r.X A >.>.>.>.;.=.@.&.@.&.@.@.",
":.-.-.*.@.@.@.@.@.@.&.*.*.*.} F ] 5.5.y.z.z.l.8.' ' ' ' r.z.z.k.e.5.[ ) A #.>.>.>.>.;.;.*.*.*.*.*.-.",
"@.@.@.@.@.@.@.@.@.@.*.>.>.>.>.%.5     ~ v.v.v.v.v.v.v.v.v.v.v.l.L . . i ;.>.>.>.>.>.>.>.>.>.>.>.>.>.",
"@.@.@.@.@.@.@.@.@.@.*.>.>.>.>.:.o.D S L Y Y Y Y Y Y Y Y Y Y Y E K P P %.;.>.>.>.>.>.>.>.>.>.>.>.>.>.",
"@.@.@.@.@.@.@.@.@.@.-.>.>.>.>.>.>.:.&.f                       @ P >.>.>.>.>.>.>.>.>.>.>.>.>.>.>.>.>."
};
