/* XPM */
static char *result[] = {
/* columns rows colors chars-per-pixel */
"50 55 237 2 ",
"   c #2E1D2C",
".  c #2D212E",
"X  c #2D242F",
"o  c #2B2732",
"O  c #2E2431",
"+  c #2B2832",
"@  c #2C2931",
"#  c #2B2C32",
"$  c #2B2E33",
"%  c #2A2D35",
"&  c #2C2E35",
"*  c #2E2F36",
"=  c #2A3134",
"-  c #2A3335",
";  c #2D3236",
":  c #293637",
">  c #283238",
",  c #2E3038",
"<  c #2F333B",
"1  c #2E3439",
"2  c #2F343B",
"3  c #2F373B",
"4  c #2B373C",
"5  c #2F363C",
"6  c #273C3B",
"7  c #263F3D",
"8  c #253D3F",
"9  c #283939",
"0  c #2E383B",
"q  c #2F383B",
"w  c #293A3E",
"e  c #2C383D",
"r  c #2F393D",
"t  c #2C3A3D",
"y  c #2D383E",
"u  c #293D3E",
"i  c #293D3F",
"p  c #2C3E3F",
"a  c #303A3D",
"s  c #303B3E",
"d  c #303C3E",
"f  c #303E3E",
"g  c #5B2A2F",
"h  c #432031",
"j  c #4E2234",
"k  c #432F3B",
"l  c #563330",
"z  c #583C38",
"x  c #6D273C",
"c  c #6D2C38",
"v  c #762C39",
"b  c #6C3630",
"n  c #763630",
"m  c #7C3535",
"M  c #4E433F",
"N  c #583341",
"B  c #254140",
"V  c #244442",
"C  c #274743",
"Z  c #234744",
"A  c #2F4142",
"S  c #2F4343",
"D  c #2F4245",
"F  c #2F4546",
"G  c #224A46",
"H  c #2D4845",
"J  c #2F4B47",
"K  c #2D4C44",
"L  c #214D48",
"P  c #2F494A",
"I  c #2F4B4B",
"U  c #284D48",
"Y  c #2F4E48",
"T  c #304142",
"R  c #3E4141",
"E  c #314844",
"W  c #304845",
"Q  c #304B45",
"!  c #304847",
"~  c #304C48",
"^  c #304C4B",
"/  c #3A4B4D",
"(  c #23534B",
")  c #27524A",
"_  c #2A534B",
"`  c #2E534B",
"'  c #25584E",
"]  c #31524A",
"[  c #31534B",
"{  c #31544B",
"}  c #30504D",
"|  c #31534C",
" . c #30534D",
".. c #30504F",
"X. c #30524F",
"o. c #31554E",
"O. c #31564E",
"+. c #31574E",
"@. c #31584F",
"#. c #275E51",
"$. c #2B5E51",
"%. c #305250",
"&. c #305452",
"*. c #305851",
"=. c #315A52",
"-. c #325C50",
";. c #325E51",
":. c #315D53",
">. c #305854",
",. c #315E54",
"<. c #315F54",
"1. c #3F5C55",
"2. c #305F59",
"3. c #355E58",
"4. c #296354",
"5. c #2C6957",
"6. c #2F6957",
"7. c #2E6E5A",
"8. c #336756",
"9. c #3B6057",
"0. c #336957",
"q. c #306059",
"w. c #316259",
"e. c #30615A",
"r. c #30625A",
"t. c #30635A",
"y. c #31635A",
"u. c #31655B",
"i. c #31665A",
"p. c #31675B",
"a. c #31675C",
"s. c #336B58",
"d. c #326A5A",
"f. c #336F5A",
"g. c #356E5B",
"h. c #31685C",
"j. c #31695C",
"k. c #316A5C",
"l. c #316A5D",
"z. c #326B5C",
"x. c #326B5D",
"c. c #326C5D",
"v. c #326D5D",
"b. c #326E5E",
"n. c #326F5E",
"m. c #32705E",
"M. c #32715F",
"N. c #32725F",
"B. c #32735F",
"V. c #30745D",
"C. c #33745D",
"Z. c #33745F",
"A. c #337460",
"S. c #337560",
"D. c #337660",
"F. c #337760",
"G. c #337761",
"H. c #327960",
"J. c #337861",
"K. c #337961",
"L. c #337A61",
"P. c #337B62",
"I. c #347B62",
"U. c #347C62",
"Y. c #347D62",
"T. c #347D63",
"R. c #347E63",
"E. c #347F63",
"W. c #4D4A47",
"Q. c #4E514C",
"!. c #5D564D",
"~. c #405C55",
"^. c #4D5B52",
"/. c #695E48",
"(. c #436F5B",
"). c #5F6B54",
"_. c #517259",
"`. c #6D624E",
"'. c #427D64",
"]. c #803135",
"[. c #893632",
"{. c #813E31",
"}. c #8A3E32",
"|. c #893E37",
" X c #943F32",
".X c #9D3F33",
"XX c #9B343F",
"oX c #A83B3A",
"OX c #814837",
"+X c #814A37",
"@X c #894138",
"#X c #904332",
"$X c #954732",
"%X c #964236",
"&X c #9F4733",
"*X c #95523E",
"=X c #AA4F33",
"-X c #A74639",
";X c #B64335",
":X c #BD4F35",
">X c #A8563E",
",X c #A95B3F",
"<X c #BF5735",
"1X c #BE583A",
"2X c #C14B35",
"3X c #C74F36",
"4X c #C35935",
"5X c #CA543B",
"6X c #D25836",
"7X c #D75C36",
"8X c #D36036",
"9X c #E26437",
"0X c #E86837",
"qX c #822A41",
"wX c #8D2C44",
"eX c #8A4142",
"rX c #8F4440",
"tX c #894C41",
"yX c #815545",
"uX c #805847",
"iX c #865845",
"pX c #965C41",
"aX c #AB4040",
"sX c #A95D40",
"dX c #966446",
"fX c #AB6542",
"gX c #A16845",
"hX c #AC7046",
"jX c #3D8467",
"kX c #47896A",
"lX c #508D6E",
"zX c #599271",
"xX c #639775",
"cX c #6C9C78",
"vX c #75A07C",
"bX c #7FA57F",
"nX c #88AA83",
/* pixels */
"2.2.2.2.2.2.2.2.2.2.x.Y.E.Y.x.2.2.2.2.&.%.%.%.y * * * y ,.s.s.f.E.E.E.E.E.E.Y.x.2.2.2.2.2.2.m.E.E.E.",
"2.2.2.2.2.2.2.2.2.2.x.Y.E.Y.x.2.2...P % f f f _ E.V.V._ f f f p ;.C.E.E.E.E.Y.x.2.2.2.2.2.2.m.E.E.E.",
"2.2.2.2.2.2.2.2.2.2.x.Y.E.Y.x.2.>.4 0 #.E.jXlXlXE.jXjXlXlXjXE._ 0 Y C.E.E.E.Y.x.2.2.2.2.2.2.m.E.E.E.",
"2.2.2.p.m.m.m.m.m.m.D.R.E.R.D.:.t $.H.E.kXvXnXnXcXvXvXnXnXvXE.E.H.U p E.E.E.R.D.m.m.x.e.2.2.a.b.b.b.",
"2.2.2.b.E.E.E.E.E.E.E.E.E.E.f p U H.E.E.lXnXnXnXnXnXnXnXnXnXE.E.E.V.U f { E.E.E.E.E.S.y.2.2.2.2.2.2.",
"2.2.2.b.E.E.E.E.E.E.E.f f   L L #.E.E.E.E.lXnXnXnXnXnXnXnXlXE.E.E.E.#.L 8   ;.;.E.E.S.y.2.2.2.2.2.2.",
"h.h.h.B.E.E.R.K.D.D.@.8 8 ' #.4.4.4.7.#.xXnXnXnXnXnXnXnXnXnXlX4.7.' L 7.4.4.% % @.D.n.r.2.2.2.2.2.2.",
"P.P.P.Y.E.E.I.c.y.y.^ 8 8 ' #.4.4.4.7.#.xXnXnXnXnXnXnXnXnXnXlX4.7.' L 7.4.4.% % ^ y.r.q.2.2.2.2.2.2.",
"E.E.E.E.E.E.P.j.2.2.P > > ` 7.4.L L ' E.vXnXvXbXnXnXnXbXbXnXcXV.' L L L $.8 + + P 2.2.2.2.2.2.2.2.2.",
"E.E.E.E.R.R.L.h.2...T ;.;.;.7.4.L L 7.E.jXlXjXkXnXvXvXkXkXlXE.E.7.L L 7.6.;.;.;.T 2.2.2.2.2.2.2.2.2.",
"E.E.E.D.c.c.k.t.2.T 0.E.E.E.E.H.4.L ' E.E.V.V.E.lXkXkXE.5.V.E.V.' L 4.E.E.E.E.E.0.< 2.2.2.2.2.2.2.2.",
"E.E.E.m.2.2.2.2.2.P f E.E.E.E.7.L L L L L L L 7.E.E.E.7.L L L L L L L E.E.E.E.E.f 2.2.2.2.2.2.2.2.2.",
"E.E.E.m.2.2.2.2.2.F [ kXkXlXcX( ' L L #.L L 7.E.E.E.E.E.#.L L ' L L ' L xXlXjXjX[ P ..2.2.2.2.2.2.2.",
"E.E.E.D.l.l.l.l.} H E.zXzXcXE.' 5.#.#.7.' L 4.H.E.E.E.H.' L #.5.' L 7.L kXcXkXkXE.% e X.2.2.2.2.2.2.",
"E.E.E.R.Y.Y.Y.] 8 V.E.E.E.E.E.7.5.#.#.7.H.4.L ' #.#.#.' L 4.E.5.4.7.4.L kXzXE.E.E.7.8 2 2.2.2.2.2.2.",
"E.E.E.E.E.E.{ u 7.E.E.E.E.zXE.E.H.7.7.E.E.H.' L L L L L 4.H.E.H.5.#.5.7.lXcXE.E.E.E.$.w ..2.2.2.2.2.",
"E.E.E.E.E.;.8 L E.nXnXnXnXlXL E.E.E.E.E.E.7.7.#.L L L #.#.7.E.E.E.E.E.E.#.lXnXnXnXnX7.L % I r.r.r.r.",
"E.E.E.E.E.;.8 L L 7.7.7.7.' #.E.E.E.kXE.E.V.5.7.7.7.7.7.4.V.E.lXcXE.E.E.' ' 7.7.7.7.L L % @.S.S.S.S.",
"E.E.E.E.E.;.8 L L L L L L L E.E.E.kXxX7.E.E.5.#.#.#.#.#.V.E.E.'.xXjXE.E.7.L L L ' L L L % ;.E.E.E.E.",
"E.E.E.E.E.;.8 L L ' 4.L L L E.cXcXzXg.L E.E.E.zXE.kXkXzXE.E.E.( g.xXcXcX7.L B B ) 7.L L % ;.E.E.E.E.",
"E.E.E.E.E.;.8 4.7.5.) Z Z L #.lXlXg.( 7.zXE.zXzX#.g.g.zXkXE.cX4.( '.lXlX' Z : : 9 #.7.4.% o.K.E.E.E.",
"E.E.E.E.E.;.8 4.7.5.) Z Z L #.lXlXg.( 7.zXE.zXzX#.g.g.zXkXE.cX4.( '.lXlX' Z : : 9 #.7.4.% P m.E.E.E.",
"E.E.E.E.;.X V L L V - - - V L L L L L E.nXnXlX#.L L L #.cXnXnX7.L L L L L V - - - - L L 6 X <.E.E.E.",
"K.K.K.K.W @ - - - - - 9 9 Z L L L ' ( L 7.7.' L L L L L 4.7.7.L L L Z 7.5.' 6 6 - - - - - @ | E.E.E.",
"p.p.p.p.X - - - - - - V V ' L ( #.5.) L L ( ( L L L L L L L L L L L 6 V ) 4.6 6 - - 9 - - - . E.E.E.",
"2.2.2.2.X - - - V - - 9 9 ) 7.5.#.C : L 7.5.C Z 7.' ' 4.L B L 4.L L Z - : B 6 6 - - 7 7 - - . E.E.E.",
"2.2.2.2.X - - 7 6 7 - - - V #.) 6 : - L #.) : V E.#.#.7.B : L 4.4.4.' - - : : : - - B 7 9 - . E.E.E.",
"2.2.2.2.P % L 6 L - - - - - - - - - - - - - - V E.#.#.7.6 - - 6 #.E.#.L - - - - - - 6 V V % <.E.E.E.",
"2.2.2.2.% Z 6 Z - 7 B : : - - - - - - - - - - 7 L 4.4.G 9 - - - 9 V V - : 7 7 7 6 6 6 L B Z o E.E.E.",
"2.2.2.2.% ( ( L - B B B B : - - - - 9 - 9 - - - V V V 7 - - 6 : 9 - - - 9 B B B V V 6 L ' ( o E.E.E.",
"p.p.p.p.% #.V.7.V Z L L L 6 - - - 7 7 V V 9 9 - - - - - 7 9 L 6 V - - - - 6 Z Z V V ) 7.H.#.o G.G.G.",
"K.K.K.K.J i #.#.L L L L L 6 - - 9 7 B L V 6 6 - V 9 9 7 V 6 L B 7 V 9 - - 6 L L L L ( #.#.i  .u.u.u.",
"E.E.E.E.E.;.    - L L L L 6 - - 6 6 V L V - V L - V V 6 6 - L L V - V - V 6 L L L L - #   ;.b.2.2.2.",
"E.E.E.E.E.C.q $ - L L L L L - V B Z L L L Z 6 6 L Z Z 6 6 Z L L L L 6 V 6 L L L L L - - @ Q z.2.2.2.",
"E.E.E.E.E.C.q $ - L L L L L - V B Z L L L Z 6 6 L Z Z 6 6 Z L L L L 6 V 6 L L L L L - - @ S w.2.2.2.",
"E.E.E.E.E.;.# - - ( ' L L L K 6 B L L L L L L L L L L L L L L L L L B 6 C ' L L ' L - - - X %.2.2.2.",
"E.E.E.E.E.;.# - - #.H.7.7.7.#.B L L L L ' 7.' 4.L ' ' 4.L 4.L L L L L 6 ( 4.7.7.H.L - - - X %.2.2.2.",
"S.S.S.K.E.C.3 $ - C #.#.#.#.6 6 ' ' L 7.5.#.( 7.L #.#.7.L ' 7.4.L 4.' - B ( #.#.#.6 - - @ A i.j.j.j.",
"r.r.r.n.E.E.d # - - - - - - - 6 #.E.E.L V - V 7.L #.#.7.6 - L #.E.E.#.- - - - - - - - - X -.U.U.U.U.",
"2.2.2.b.E.E.P.5 - - - - - - - - 9 V V - - - 7 G 7.4.4.G 9 - - 9 V V 9 - - - - - - - - # ;.E.E.E.E.E.",
"e.e.e.n.E.E.P.! # - - - - - - - - - - - - - - 7 V V V 7 - - - - - - - - - - - - - - = ; 0.E.E.E.E.E.",
"Z.Z.Z.K.E.E.T.G.+.X @ - - - - - - - - - - - - - - - - - - - - - - - - - - - - - - X 1 8.E.E.E.E.E.E.",
"E.E.E.E.E.E.E.E.E.E X - - - - - - - - - - - - - - - - - - - - - - - - - - - - - -   *.P.E.E.E.E.E.E.",
"E.E.E.E.E.E.E.E.E.E.;.# # - - - - - - - - - - - - - - - - - - - - - - - - - - - X 2.j.P.E.E.E.E.E.E.",
"E.E.E.E.E.E.Y.D.N.N.N.~ ~ a # # ; f ; - - - - - # # # $ - - - - = , < # # & < 5 =.c.M.U.E.E.J.N.N.N.",
"E.E.E.E.E.E.P.j.q.q.q.q.q.r.a f { E.f # # # # # j b b l # # # # & ..2.< < D e.N.R.R.R.E.E.E.b.q.q.q.",
"E.E.E.E.E.E.P.j.2.2.2.2.2.e.B.E.E.E.f =X&X].%X XwX6X6X8X Xv [.{.O ..2.2.2.2.e.B.E.E.E.E.E.E.b.2.2.2.",
"E.E.E.Y.P.P.F.a.2.2.2.2.2.e.B.E.E.{ +X0X7XoX5X3XwX3X3X0X3XXX;X=Xh k ..e.y.y.u.S.E.E.R.I.P.P.c.2.2.2.",
"E.E.E.A.h.h.p.r.2.2.2.2.2.e.B.E.E.{ +X0X7XoX5X3XwX3X3X0X3XXX;X=Xh k ..h.S.D.F.U.E.E.J.x.h.h.y.2.2.2.",
"E.E.E.m.2.2.2.2.2.2.2.2.2.e.B.E.;.;.hX0XoXaX3X;XwX3X3X7X;XXX;X=Xj wXj   Y.E.E.E.E.E.S.y.2.2.2.2.2.2.",
"E.E.E.m.2.2.2.2.2.2.2.2.2.e.O.b #X7X/.[.$X9X2XXX;X6X6X7XXXoXfX<Xz N qXx ] E.E.E.E.E.S.y.2.2.2.2.2.2.",
"m.m.m.h.2.2.2.2.2.2.u.v.b.n.s hXgX@Xn r 9X1X-XXX3X0X0X7XXXeX`.0X<Xb c a R.E.E.E.E.E.L.m.b.b.b.b.b.b.",
"2.2.2.2.2.2.2.2.2.2.x.Y.E.E.E.E.0.OX:XtXiX|.W.rX3XdXdX9Xm / 3X}.,XsX.Xf E.E.E.E.E.E.E.E.E.E.E.E.E.E.",
"2.2.2.2.2.2.2.2.2.2.x.Y.E.E.E.E.C.*XyX!.1.Q.>.tX!.>X>X0X<Xz g R M _.).;.E.E.E.E.E.E.E.E.E.E.E.E.E.E.",
"2.2.2.2.2.2.2.2.2.2.x.Y.E.E.E.E.E.(.9.2.2.2.2.~.3.^.^.uXuXpX4X2 d.E.E.E.E.E.E.E.E.E.E.E.E.E.E.E.E.E."
};
